<svg xmlns="http://www.w3.org/2000/svg" width="45.502" height="51.999" viewBox="0 0 45.502 51.999">
  <g id="left" transform="translate(-31.987)">
    <g id="Group_14" data-name="Group 14" transform="translate(31.987 0)">
      <path id="Path_520" data-name="Path 520" d="M77.175,50.147,53.147,26.032,77.153,1.852a1.079,1.079,0,0,0,0-1.527A1.034,1.034,0,0,0,76.395,0H57.848a1.082,1.082,0,0,0-.769.325L32.3,25.274a1.079,1.079,0,0,0,0,1.527L57.1,51.685A1.072,1.072,0,0,0,57.87,52H76.406a1.088,1.088,0,0,0,.769-1.852Zm-18.861-.314L34.6,26.032,58.293,2.167H73.784L50.85,25.274a1.079,1.079,0,0,0,0,1.527L73.795,49.832H58.314Z" transform="translate(-31.987 0)"/>
    </g>
  </g>
</svg>
