<svg xmlns="http://www.w3.org/2000/svg" width="275.937" height="164.785" viewBox="0 0 275.937 164.785">
  <g id="bookingFail" transform="translate(-1042.776 -871.861)">
    <path id="Path_411" data-name="Path 411" d="M1059.437,1036.015s-33.373-39.11-5.653-81.451c24.6-37.569,53.29-35,74.334-19.755,8.965,6.492,34.807.8,56.8-37.429,30-52.131,133.976-20.513,115.018,59.693-9.175,38.816,27.921,40.227,9.019,79.022Z" transform="translate(0 0)" fill="#f0f9ff"/>
    <path id="Path_412" data-name="Path 412" d="M1717.209,1379.77s5.573-6.5.343-10.636c0,0-3.821-2.312-6.937-2.124,0,0,4.415,7.4,2.988,8.138s-4.326-8.6-4.326-8.6-8.695-.841-11.492.5c0,0,7.434,6.084,5.867,6.448s-9.595-5.611-9.595-5.611-8.093,1.378-7.662,6.315,3.219,6.462,4.445,6.331,8.392-2.867,8.552-1.865-4.161,4.287-7.182,4.429c0,0,5.706,6.294,9.5,4.478s4.114-4.7,6.478-5.776,4.382-1.077,3.406.026-5.252,2.17-6.6,4.562-2.564,4,1.357,3.413,10.3-3.459,10.583-6.76Z" transform="translate(-493.577 -379.17)" fill="#599dad"/>
    <path id="Path_413" data-name="Path 413" d="M1703.51,1400.675s21.982-.846,26.837,5.441a15.9,15.9,0,0,0,4.377,6.145l.515,1.4s-3.811-4.014-5.173-4.259C1730.068,1409.4,1732.2,1401.614,1703.51,1400.675Z" transform="translate(-506.715 -405.516)" fill="#599dad"/>
    <path id="Path_414" data-name="Path 414" d="M1833.336,1448.68a13.819,13.819,0,0,1,5.044,9.723l-.855.077s-1.508-6.448-4.231-8.967S1833.336,1448.68,1833.336,1448.68Z" transform="translate(-605.326 -441.936)" fill="#599dad"/>
    <path id="Path_415" data-name="Path 415" d="M1883.092,1313.491s-8.858-4.967-4.729-11.706c0,0,3.31-4.14,6.858-5.2,0,0-1.893,10.051,0,10.287s1.3-11.352,1.3-11.352,9.343-4.492,13.007-4.137c0,0-5.793,9.814-3.9,9.578s8.392-10.17,8.392-10.17,9.578-1.774,11.114,3.9-.946,8.515-2.364,8.858-10.525.233-10.289,1.417,6.387,3.074,9.816,2.012c0,0-3.783,9.341-8.75,8.858s-6.5-3.546-9.578-3.783-5.322.592-3.783,1.42,6.739.271,9.224,2.382,4.492,3.413-.119,4.357-12.891.357-14.546-3.191Z" transform="translate(-639.967 -321.071)" fill="#6bb7bf"/>
    <path id="Path_416" data-name="Path 416" d="M1922.193,1316s-24.83,8.042-27.669,17.017a18.822,18.822,0,0,1-2.364,8.625v1.774s2.6-6.03,4.019-6.858C1896.17,1336.576,1890.612,1328.772,1922.193,1316Z" transform="translate(-651.39 -340.608)" fill="#6bb7bf"/>
    <path id="Path_417" data-name="Path 417" d="M1884.488,1422.45a16.4,16.4,0,0,0-1.648,12.9l.986-.266s-.956-7.8,1.047-11.718S1884.488,1422.45,1884.488,1422.45Z" transform="translate(-643.726 -421.398)" fill="#6bb7bf"/>
    <path id="Path_418" data-name="Path 418" d="M1700.658,1260.077s11.69-6.548,6.236-15.434c0,0-4.364-5.455-9.04-6.858,0,0,2.492,13.25,0,13.562s-1.716-14.965-1.716-14.965-12.315-5.923-17.147-5.455c0,0,7.639,12.937,5.145,12.625s-11.068-13.4-11.068-13.4-12.625-2.331-14.651,5.142,1.247,11.224,3.117,11.693,13.872.31,13.562,1.865-8.417,4.054-12.94,2.65c0,0,4.989,12.313,11.537,11.69s8.573-4.676,12.625-4.989,7.014.781,4.989,1.865-8.884.357-12.159,3.14-5.923,4.5.156,5.744,16.991.466,19.173-4.2Z" transform="translate(-471.643 -274.505)" fill="#86d1cd"/>
    <path id="Path_419" data-name="Path 419" d="M1685.26,1263.37s32.732,10.6,36.474,22.448a24.851,24.851,0,0,0,3.119,11.378v2.331s-3.431-7.949-5.3-9.04C1719.552,1290.494,1726.878,1280.2,1685.26,1263.37Z" transform="translate(-492.719 -300.247)" fill="#6bb7bf"/>
    <path id="Path_420" data-name="Path 420" d="M1849.961,1403.69a21.6,21.6,0,0,1,2.17,17l-1.3-.35s1.261-10.277-1.38-15.448S1849.961,1403.69,1849.961,1403.69Z" transform="translate(-617.827 -406.741)" fill="#6bb7bf"/>
    <path id="Path_421" data-name="Path 421" d="M1769.08,1492.863a22.9,22.9,0,0,0,22.9-22.9l-45.8,0a22.9,22.9,0,0,0,22.9,22.9Z" transform="translate(-539.438 -458.68)" fill="#ee9849"/>
    <path id="Path_422" data-name="Path 422" d="M1783.894,1492.716A22.9,22.9,0,0,1,1758.15,1470h5.69A22.9,22.9,0,0,0,1783.894,1492.716Z" transform="translate(-548.618 -458.71)" fill="#f3b175"/>
    <path id="Path_423" data-name="Path 423" d="M1791.25,1563.905H1744.82a2.825,2.825,0,0,1,2.825-2.825h40.793A2.825,2.825,0,0,1,1791.25,1563.905Z" transform="translate(-538.395 -528.559)" fill="#ee9849"/>
    <rect id="Rectangle_548" data-name="Rectangle 548" width="47.073" height="0.702" transform="translate(1205.989 1011.28)" fill="#ee9849"/>
    <rect id="Rectangle_549" data-name="Rectangle 549" width="63.465" height="7.564" rx="3.782" transform="translate(1069.055 958.769)" fill="#ee9849"/>
    <path id="Path_424" data-name="Path 424" d="M1178.139,1277.14l-.755,4.429-10.911,64.071a.543.543,0,0,1-.571.392c-.562,0-1-.371-.932-.8l8.655-65.612.329-2.478Z" transform="translate(-93.704 -310.807)" fill="#efcbab"/>
    <path id="Path_425" data-name="Path 425" d="M1206.62,1277.14l-.755,4.429c-.518-1.765-3.765-1.949-3.765-1.949l.329-2.478Z" transform="translate(-122.185 -310.807)" fill="#cca07f"/>
    <path id="Path_426" data-name="Path 426" d="M1374.02,1346.029a.539.539,0,0,1-.569-.392l-10.921-64.071-.466-2.762-.284-1.664h4.2l.326,2.478.256,1.946,8.392,63.665C1375.018,1345.658,1374.582,1346.029,1374.02,1346.029Z" transform="translate(-244.643 -310.807)" fill="#efcbab"/>
    <path id="Path_427" data-name="Path 427" d="M1366.574,1281.572c-1.065-2.1-4.49-2.758-4.49-2.758h0l-.284-1.664h4.2l.326,2.478Z" transform="translate(-244.658 -310.815)" fill="#cca07f"/>
    <path id="Path_428" data-name="Path 428" d="M1587.58,1039.83s10.86,11.11,11.389,15.385-5.231,11-5.231,11Z" transform="translate(-417.808 -128.814)" fill="#ed7d2b"/>
    <path id="Path_429" data-name="Path 429" d="M1517.965,1538.582s-.373,6.04-1.543,6.126H1510.5l-7.366-.042a2.389,2.389,0,0,1,2.2-2.152c2.154-.375,5.758-1.888,7.063-4.734C1513.764,1534.789,1517.965,1538.582,1517.965,1538.582Z" transform="translate(-353.044 -509.809)" fill="#163560"/>
    <path id="Path_430" data-name="Path 430" d="M1588.357,1538.582s-.375,6.04-1.543,6.126h-5.928l-7.366-.042a2.392,2.392,0,0,1,2.2-2.152c2.151-.375,5.76-1.888,7.063-4.734C1584.157,1534.789,1588.357,1538.582,1588.357,1538.582Z" transform="translate(-407.026 -509.809)" fill="#163560"/>
    <path id="Path_431" data-name="Path 431" d="M1531.77,1236.123s1.928,12.324,9.114,34.2,8.159,31.35,8.159,31.35l7.711-.217s.065-23.907-3.247-34.907-.716-39.658-.716-39.658Z" transform="translate(-375.008 -272.27)" fill="#163560"/>
    <path id="Path_432" data-name="Path 432" d="M1515.651,1229.78a298.943,298.943,0,0,0,2.942,41.371c3.214,22.8,2.124,32.481,2.124,32.481l7.692.256s4.6-22.809,3.28-34.222,6.294-39.161,6.294-39.161Z" transform="translate(-362.642 -274.487)" fill="#1c468a"/>
    <path id="Path_433" data-name="Path 433" d="M1546.6,1013.152l-4.1,2.688-5.925-1.1c.081-.478.466-2.462.83-4.256.021-.1.044-.212.063-.315.305-1.529.569-2.842.569-2.842l5.534-2.441,2.065-.911c0,.033-.161,1.7-.182,1.939A14.106,14.106,0,0,0,1546.6,1013.152Z" transform="translate(-378.697 -101.314)" fill="#ffb27d"/>
    <path id="Path_434" data-name="Path 434" d="M1535.281,1031.333c.116-.049,7.137-2.121,7.9-1.865s1.214,1.727,1.214,1.727l-11.485,2.6A5.709,5.709,0,0,1,1535.281,1031.333Z" transform="translate(-375.882 -120.851)" fill="#ed7d2b"/>
    <path id="Path_435" data-name="Path 435" d="M1536.584,1083.978c-1.189,5.429-20.993,6.073-26.108,1.145-.583-.562-.611-3.175-.391-6.7.429-6.884,1.8-17.25,1.865-22.529a41.765,41.765,0,0,1,.846-7.541,61.058,61.058,0,0,1,2.51-9.026s9.674-3.128,11.485-2.6C1535.512,1039.292,1537.775,1078.549,1536.584,1083.978Z" transform="translate(-358.281 -126.391)" fill="#ff9843"/>
    <path id="Path_436" data-name="Path 436" d="M1510.54,1113.478c.429-6.884,1.8-17.25,1.865-22.529a41.754,41.754,0,0,1,.846-7.541l5.828-1.028S1524.752,1105.618,1510.54,1113.478Z" transform="translate(-358.727 -161.446)" fill="#ed7d2b"/>
    <path id="Path_437" data-name="Path 437" d="M1518.611,1171.667a1.371,1.371,0,0,1-.436,1.585,2.648,2.648,0,0,0-1.182,2.422c.191.755,2.016,1.981,2.65,1.783s1.923-1.191,1.783-1.587.867-3.5-.676-4.678A1.25,1.25,0,0,0,1518.611,1171.667Z" transform="translate(-363.646 -229.229)" fill="#ffb27d"/>
    <path id="Path_438" data-name="Path 438" d="M1496.072,1042.09s-5.674,1.063-10.2,7.727-7.5,11.618-6.664,14.019,8.427,10.723,9.734,10.723a3.51,3.51,0,0,0,3.541-3.093s-5.345-8.012-4.292-9.212c.45-.513,6.94-5.783,7.867-3.4C1497.587,1062.8,1496.072,1042.09,1496.072,1042.09Z" transform="translate(-334.594 -130.548)" fill="#ff9843"/>
    <path id="Path_439" data-name="Path 439" d="M1547.764,1008.98c-1.217,2.061-5.746,3.839-7.634,4.494.021-.1.044-.212.063-.315.305-1.529.569-2.841.569-2.841l5.534-2.441C1547.519,1007.859,1548.258,1008.138,1547.764,1008.98Z" transform="translate(-381.419 -104.309)" fill="#fca56b"/>
    <path id="Path_440" data-name="Path 440" d="M1530.228,968.636s8.916,2.781,10.562-2.8,3.907-8.977-1.716-10.989-7.361-.21-8.364,1.518S1527.952,967.769,1530.228,968.636Z" transform="translate(-372.971 -62.964)" fill="#ffb27d"/>
    <path id="Path_441" data-name="Path 441" d="M1534.7,945.821s.569,6.49,1.911,6.208,2.564-.49,2.361,1.466-1.107,5.068,3.03,5.413,9.135-11.173,8-13.194C1546.714,939.882,1529.959,938.7,1534.7,945.821Z" transform="translate(-376.611 -52.948)" fill="#163560"/>
    <path id="Path_442" data-name="Path 442" d="M1923.42,1285.539h-61.01l20.052-86.859h58.071l2.671,1.175Z" transform="translate(-628.575 -250.636)" fill="#cca07f"/>
    <path id="Path_443" data-name="Path 443" d="M1910.8,1285.539H1849.79l20.054-86.859h61.01Z" transform="translate(-618.896 -250.636)" fill="#e3f0ff"/>
    <path id="Path_444" data-name="Path 444" d="M2029.911,1251.068h-28.159a1.515,1.515,0,0,0-1.4,1.13.874.874,0,0,0,.869,1.131h28.156a1.513,1.513,0,0,0,1.4-1.131.872.872,0,0,0-.867-1.13Z" transform="translate(-734.333 -290.811)" fill="#cbe2f7"/>
    <path id="Path_445" data-name="Path 445" d="M2025.437,1276.919H1995.71a.466.466,0,0,0-.427.345.268.268,0,0,0,.266.345h29.73a.466.466,0,0,0,.427-.345.266.266,0,0,0-.268-.345Z" transform="translate(-730.466 -310.637)" fill="#cbe2f7"/>
    <path id="Path_446" data-name="Path 446" d="M2023.862,1283.749h-29.728a.466.466,0,0,0-.424.345.266.266,0,0,0,.263.345h29.73a.466.466,0,0,0,.424-.345.266.266,0,0,0-.266-.345Z" transform="translate(-729.259 -315.875)" fill="#cbe2f7"/>
    <path id="Path_447" data-name="Path 447" d="M1948.013,1253.329h7.606a1.51,1.51,0,0,0,1.4-1.131.871.871,0,0,0-.869-1.13h-7.606a1.515,1.515,0,0,0-1.4,1.13.874.874,0,0,0,.87,1.131Z" transform="translate(-693.526 -290.811)" fill="#cbe2f7"/>
    <path id="Path_448" data-name="Path 448" d="M2010.016,1326.278h-28.156a1.513,1.513,0,0,0-1.4,1.13.874.874,0,0,0,.87,1.133h28.156a1.512,1.512,0,0,0,1.4-1.133.872.872,0,0,0-.87-1.13Z" transform="translate(-719.077 -348.49)" fill="#cbe2f7"/>
    <path id="Path_449" data-name="Path 449" d="M2005.542,1352.13h-29.728a.466.466,0,0,0-.424.347.266.266,0,0,0,.266.345h29.728a.467.467,0,0,0,.424-.345.268.268,0,0,0-.266-.347Z" transform="translate(-715.209 -368.316)" fill="#cbe2f7"/>
    <path id="Path_450" data-name="Path 450" d="M2003.964,1359h-29.73a.466.466,0,0,0-.424.347.266.266,0,0,0,.266.345H2003.8a.466.466,0,0,0,.427-.345.268.268,0,0,0-.266-.347Z" transform="translate(-713.997 -373.584)" fill="#cbe2f7"/>
    <path id="Path_451" data-name="Path 451" d="M1928.14,1328.551h7.609a1.516,1.516,0,0,0,1.4-1.133.872.872,0,0,0-.87-1.131h-7.608a1.513,1.513,0,0,0-1.4,1.131.874.874,0,0,0,.869,1.133Z" transform="translate(-678.286 -348.497)" fill="#cbe2f7"/>
    <path id="Path_452" data-name="Path 452" d="M1994.168,1401.5h-28.157a1.516,1.516,0,0,0-1.4,1.131.874.874,0,0,0,.872,1.13h28.157a1.513,1.513,0,0,0,1.4-1.13.872.872,0,0,0-.872-1.131Z" transform="translate(-706.924 -406.175)" fill="#cbe2f7"/>
    <path id="Path_453" data-name="Path 453" d="M1989.687,1427.349h-29.728a.466.466,0,0,0-.426.345.268.268,0,0,0,.266.345h29.73a.466.466,0,0,0,.424-.345.266.266,0,0,0-.266-.345Z" transform="translate(-703.049 -426.001)" fill="#cbe2f7"/>
    <path id="Path_454" data-name="Path 454" d="M1988.112,1434.179h-29.728a.466.466,0,0,0-.424.345.266.266,0,0,0,.266.345h29.728a.466.466,0,0,0,.424-.345.266.266,0,0,0-.266-.345Z" transform="translate(-701.842 -431.239)" fill="#cbe2f7"/>
    <path id="Path_455" data-name="Path 455" d="M1912.282,1403.759h7.606a1.515,1.515,0,0,0,1.4-1.13.874.874,0,0,0-.869-1.13h-7.609a1.511,1.511,0,0,0-1.4,1.131.872.872,0,0,0,.872,1.13Z" transform="translate(-666.122 -406.176)" fill="#cbe2f7"/>
    <path id="Path_456" data-name="Path 456" d="M1975.659,1479.777h-28.15a1.512,1.512,0,0,0-1.4,1.13.874.874,0,0,0,.87,1.133h28.156a1.517,1.517,0,0,0,1.4-1.133.874.874,0,0,0-.876-1.13Z" transform="translate(-692.734 -466.208)" fill="#cbe2f7"/>
    <path id="Path_457" data-name="Path 457" d="M1971.195,1505.63h-29.73a.466.466,0,0,0-.424.345.268.268,0,0,0,.266.347h29.728a.466.466,0,0,0,.427-.347.268.268,0,0,0-.266-.345Z" transform="translate(-688.867 -486.035)" fill="#cbe2f7"/>
    <path id="Path_458" data-name="Path 458" d="M1969.615,1512.459h-29.728a.466.466,0,0,0-.427.345.268.268,0,0,0,.266.347h29.728a.466.466,0,0,0,.427-.347.268.268,0,0,0-.266-.345Z" transform="translate(-687.655 -491.272)" fill="#cbe2f7"/>
    <path id="Path_459" data-name="Path 459" d="M1901.885,1479.778h-7.613a1.515,1.515,0,0,0-1.4,1.131.876.876,0,0,0,.872,1.133h7.606a1.513,1.513,0,0,0,1.4-1.133.872.872,0,0,0-.865-1.131Z" transform="translate(-651.907 -466.209)" fill="#cbe2f7"/>
    <path id="Path_460" data-name="Path 460" d="M2021.2,1203.33h-23.644a2.518,2.518,0,0,1-2.452-3.082l.891-3.858H2025.1l-1.084,4.695A2.9,2.9,0,0,1,2021.2,1203.33Z" transform="translate(-730.284 -248.88)" fill="#ee9849"/>
    <path id="Path_461" data-name="Path 461" d="M2123.6,1196.39l2,.534h-2.126Z" transform="translate(-828.788 -248.88)" fill="#ed7d2b"/>
    <path id="Path_462" data-name="Path 462" d="M1983.7,1555.991a2.018,2.018,0,0,1-2.021,2.019H1924.8a2.021,2.021,0,0,1,0-4.039h56.877A2.03,2.03,0,0,1,1983.7,1555.991Z" transform="translate(-674.922 -523.107)" fill="#ee9849"/>
    <path id="Path_463" data-name="Path 463" d="M2177.12,1553.97l7.429,1.643-7.429,2.4Z" transform="translate(-869.925 -523.107)" fill="#739af0"/>
    <path id="Path_464" data-name="Path 464" d="M1937.341,1554v4.04h-12.534a2.021,2.021,0,0,1,0-4.04Z" transform="translate(-674.93 -523.13)" fill="#739af0"/>
    <rect id="Rectangle_550" data-name="Rectangle 550" width="265.16" height="1.804" rx="0.902" transform="translate(1053.553 1034.842)" fill="#2e3552"/>
  </g>
</svg>
