<svg xmlns="http://www.w3.org/2000/svg" width="275.938" height="185.784" viewBox="0 0 275.938 185.784">
  <g id="Artboard_2" data-name="Artboard 2" transform="translate(-360 -247.13)">
    <path id="Path_465" data-name="Path 465" d="M696.327,841.569c1.521,30.137-18.741,45.611-47.966,49.286-32.783,4.122-66.444-1.439-99.089-4.267-12.3-1.066-24.635-1.866-36.989-1.8-11.638.063-24.246,3.25-35.676,1.486-28.584-4.409-43.315-33.74-38.861-59.322,2.082-11.957,6.676-25.171,17.005-32.43,10.389-7.3,22.474-5.432,33.863-2.263,20.741,5.772,43.34,16.6,65.317,12.366,12.6-2.424,23.572-9.561,35.535-13.83a117.421,117.421,0,0,1,37.349-7.1c16.583-.258,33.539,4.073,46.948,14.206C687.905,808.582,695.479,824.748,696.327,841.569Z" transform="translate(-67.632 -471.504)" fill="#f0f0f0"/>
    <path id="Path_466" data-name="Path 466" d="M2193.966,1425.063s-11.423,8.056-24.545,1.075l12.272-6.848Z" transform="translate(-1590.062 -1030.058)" fill="#6f3428"/>
    <path id="Path_467" data-name="Path 467" d="M1617.875,1022.78s-11.115,20.844-7.637,27l12.655-7.032Z" transform="translate(-1098.078 -681.617)" fill="#6f3428"/>
    <path id="Path_468" data-name="Path 468" d="M1442.7,721.746a38.714,38.714,0,0,1-4.018-3.478,58.541,58.541,0,0,1-6.989-8.541h0c-1.427-2.089-2.76-4.271-4-6.479a135.128,135.128,0,0,1-8.349-18.238c-2.073-5.506-3.273-9.591-3.6-10.525a1.019,1.019,0,0,0-.078-.2l6.012-17.262c2.909-4.653,4.534,10.448,4.534,10.448a11.63,11.63,0,0,0,2.347-2.594c.646-.849,1.143.485,1.23.97.5,2.776-1.731,8.055-1.731,8.055l14.336,21.009a29.036,29.036,0,0,0,2.925,3.624,28.16,28.16,0,0,0,2.161,2.061C1448.761,705.99,1448.632,716.406,1442.7,721.746Z" transform="translate(-927.69 -359.422)" fill="#f9b384"/>
    <path id="Path_469" data-name="Path 469" d="M1609.528,1042.662a38.67,38.67,0,0,1-4.018-3.478c4.5-5.155,7.941-13.716,8.805-17.68.682.727-.755-.647,0,0C1615.587,1026.906,1615.457,1037.322,1609.528,1042.662Z" transform="translate(-1094.516 -680.339)" fill="#e28b6d" opacity="0.6"/>
    <path id="Path_470" data-name="Path 470" d="M1706.892,1076.633c-7.832-1.525-14-1.427-19.215-.393a38.031,38.031,0,0,0-5.334,1.468l-1.576,5.65-3.112,11.172-2.021,7.258-1.84,6.591-1.034,3.717h-55.552l8.789-57.3-10.847-5a22.988,22.988,0,0,0,1.934-3.578c3.293-7.418,5.061-18.662,5.7-23.423a28.449,28.449,0,0,0,10.742,5.8,55.027,55.027,0,0,0,15.767,2.394l.548-.016c12.34-.485,17.846,3.273,17.846,3.273,2.788.552,10.071,3.349,16.423,6.146,2.8,1.226,5.424,2.456,7.409,3.49a20.964,20.964,0,0,1,10.645,13.585Z" transform="translate(-1102.987 -681.626)" fill="#ee6f57"/>
    <path id="Path_471" data-name="Path 471" d="M2174.734,1387.334a38.1,38.1,0,0,0-5.334,1.468l3.345-12Z" transform="translate(-1590.044 -992.719)" fill="#ae5140" opacity="0.6"/>
    <path id="Path_472" data-name="Path 472" d="M1509.976,1033.292c-1.427-2.089-2.546-3.976-5.226-8.735C1508.957,1023.117,1511.47,1029.316,1509.976,1033.292Z" transform="translate(-1005.971 -682.992)" fill="#ee6f57" opacity="0.3"/>
    <path id="Path_473" data-name="Path 473" d="M1717.384,1504.57l-3.716,13.335-2.021,7.258-49.851,3.8-5.666-9.914C1692.577,1518.3,1707.828,1513.1,1717.384,1504.57Z" transform="translate(-1138.999 -1104.999)" fill="#ae5140" opacity="0.6"/>
    <path id="Path_474" data-name="Path 474" d="M1419.918,776.1c-2.073-5.506-3.273-9.591-3.6-10.525l9.328-5.777C1426.008,765.057,1421.849,772.553,1419.918,776.1Z" transform="translate(-928.261 -450.518)" fill="#e28b6d" opacity="0.6"/>
    <path id="Path_475" data-name="Path 475" d="M1929.758,1197a9.527,9.527,0,0,0,3.25,4.849,12.046,12.046,0,0,0,5.334,2.365,13.447,13.447,0,0,0,5.861-.252,12.581,12.581,0,0,0,2.765-1.091,14.744,14.744,0,0,0,2.508-1.656l.275.295a12.73,12.73,0,0,1-2.424,1.988,13.447,13.447,0,0,1-2.87,1.334,12.97,12.97,0,0,1-6.3.4,11.861,11.861,0,0,1-5.711-2.709,10.017,10.017,0,0,1-2.027-2.455,8.789,8.789,0,0,1-1.056-2.973Z" transform="translate(-1379.105 -834.716)" fill="#ae5140"/>
    <path id="Path_476" data-name="Path 476" d="M1980.29,1034.05l-1.546,12.082a8.868,8.868,0,0,1-17.664-1.106,9.149,9.149,0,0,1,.112-1.405l.279-1.769,1.091-6.891,6.141-.315Z" transform="translate(-1406.98 -691.521)" fill="#f9b384"/>
    <path id="Path_477" data-name="Path 477" d="M1942.11,776.046a18.321,18.321,0,0,1,1.954-5.83,12.463,12.463,0,0,1,9.389-6.819c6.1-.88,13.986-.022,18.281,5.836,4.842,6.6.818,19.81-4.373,20.937S1942.11,776.046,1942.11,776.046Z" transform="translate(-1390.309 -453.421)" fill="#102048"/>
    <path id="Path_478" data-name="Path 478" d="M1975.463,1041.5c-2.073,1.964-6.849,6.56-13.493,6.473l1.37-8.66,6.141-.315Z" transform="translate(-1407.762 -695.871)" fill="#e28b6d"/>
    <path id="Path_479" data-name="Path 479" d="M1957.106,823.544l-.925,4.813-.228,1.178-.911,4.732-.521,2.714-.646,3.35-3.159,1.9a14.019,14.019,0,0,1-2.45,1.205,23.2,23.2,0,0,1-11.612,1.324,4.879,4.879,0,0,1-1.023-.242c-2.44-.832-3.691-3.394-4.243-6.6a34.836,34.836,0,0,1-.285-7.646,81.346,81.346,0,0,1,1.262-9.843c5.433-4.849,12.85-5.739,18.352-6.814Z" transform="translate(-1380.565 -497.805)" fill="#f9b384"/>
    <path id="Path_480" data-name="Path 480" d="M1942.11,801.01c8.654-6.813,20.313.089,20.313.089s-1.782,10.729,1.664,9.844,6.943-8.059,6.943-8.059l-7.888-11.373-17.256,2.969Z" transform="translate(-1390.309 -478.384)" fill="#102048"/>
    <path id="Path_481" data-name="Path 481" d="M2118.9,933.518c1.7-2.977,5-3.933,6.77-1.674s1.843,9.365-6.883,7.83Z" transform="translate(-1545.57 -600.609)" fill="#f9b384"/>
    <path id="Path_482" data-name="Path 482" d="M1978.248,934.316c-.561,1.518-1.431,2.87-2,4.293-.066.172-.15.364-.192.521a.846.846,0,0,0-.044.409.5.5,0,0,0,.156.3,1.393,1.393,0,0,0,.4.235,8.931,8.931,0,0,0,2.242.389l.009.3a5.841,5.841,0,0,1-2.479-.051,1.856,1.856,0,0,1-.644-.33,1.232,1.232,0,0,1-.425-.707,1.6,1.6,0,0,1,.051-.765,4.628,4.628,0,0,1,.213-.6,25.64,25.64,0,0,1,2.441-4.138Z" transform="translate(-1419.429 -603.758)" fill="#e28b6d"/>
    <path id="Path_483" data-name="Path 483" d="M2034,926.361c-.212.715-.8,1.174-1.3,1.023s-.748-.849-.536-1.568.8-1.175,1.3-1.024S2034.211,925.641,2034,926.361Z" transform="translate(-1469.375 -595.484)" fill="#102048"/>
    <ellipse id="Ellipse_76" data-name="Ellipse 76" cx="1.352" cy="0.959" rx="1.352" ry="0.959" transform="translate(553.211 331.195) rotate(-73.52)" fill="#102048"/>
    <path id="Path_484" data-name="Path 484" d="M2021.22,905.969a4.788,4.788,0,0,1,1.536-.989,3.855,3.855,0,0,1,1.88-.253,3.811,3.811,0,0,1,1.762.7,4.782,4.782,0,0,1,1.245,1.333l-.228.2a10.92,10.92,0,0,0-1.383-.964,4.2,4.2,0,0,0-1.493-.511,4.119,4.119,0,0,0-1.576.115,9.109,9.109,0,0,0-1.576.606Z" transform="translate(-1459.829 -577.853)" fill="#102048"/>
    <path id="Path_485" data-name="Path 485" d="M1953.859,902.687a2.1,2.1,0,0,0-1.818-.992,2.627,2.627,0,0,0-1.045.233,5.446,5.446,0,0,0-1,.606l-.242-.189a2.611,2.611,0,0,1,.912-1.02,2.474,2.474,0,0,1,1.375-.406,2.3,2.3,0,0,1,1.377.461,1.825,1.825,0,0,1,.727,1.212Z" transform="translate(-1397.023 -574.53)" fill="#102048"/>
    <path id="Path_486" data-name="Path 486" d="M1972.85,1007l5.626.121s-3.119,4.231-5.41.293Z" transform="translate(-1417.322 -667.75)" fill="#fff"/>
    <path id="Path_487" data-name="Path 487" d="M2130.84,949.54a4.208,4.208,0,0,1,.263-1.444,3.152,3.152,0,0,1,.849-1.287,2.182,2.182,0,0,1,1.519-.564,2.271,2.271,0,0,1,1.414.593l-.153.263a3.13,3.13,0,0,0-1.248-.174,1.9,1.9,0,0,0-1.024.463,3.544,3.544,0,0,0-.758.982c-.211.382-.383.8-.567,1.227Z" transform="translate(-1556.159 -614.36)" fill="#e28b6d"/>
    <circle id="Ellipse_77" data-name="Ellipse 77" cx="3.963" cy="3.963" r="3.963" transform="translate(563.706 332.903)" fill="#ee6f57" opacity="0.3"/>
    <path id="Path_488" data-name="Path 488" d="M1934.18,954.931a3.978,3.978,0,0,1-2.781,3.785,34.836,34.836,0,0,1-.285-7.646,3.964,3.964,0,0,1,3.066,3.861Z" transform="translate(-1380.574 -618.601)" fill="#ee6f57" opacity="0.3"/>
    <path id="Path_489" data-name="Path 489" d="M1299.25,846.91s11.284,5.522,9.192,14.686l-7.463,2.089Z" transform="translate(-825.384 -527.068)" fill="#102048"/>
    <path id="Path_490" data-name="Path 490" d="M1299.25,668.514c1.212-1.193,7.42-8.055,7.2-16.629-.165-6.5,2.718-3.565,3.089.921,0,0,1.586-9.177,5.957-8.244l-1.284,1.759s1.657-3.109,2.994-2.277.121,3.491.121,3.491.624-2.3,1.771-2.482,2.2,3.436-.364,12.863a23.915,23.915,0,0,1,3.88-3.22c1.1-.464,1.024,6.745-6.766,14.426s-13.3,13.6-13.3,13.6Z" transform="translate(-825.384 -348.672)" fill="#f9b384"/>
    <path id="Path_491" data-name="Path 491" d="M924.23,884.467c.274.423,45.462-37.6,45.462-37.6l9.192,14.686-46.126,54.311Z" transform="translate(-495.828 -527.033)" fill="#708cd5"/>
    <path id="Path_492" data-name="Path 492" d="M1401.846,648.925c-.538.829-1.037,1.7-1.495,2.57a28.647,28.647,0,0,0-1.235,2.7,22.046,22.046,0,0,0-.933,2.808l-.187.716-.142.727c-.121.485-.148.97-.242,1.467l-.2-.011a14.185,14.185,0,0,1,.331-3.005,18.36,18.36,0,0,1,.9-2.893,21.976,21.976,0,0,1,1.334-2.717,17.791,17.791,0,0,1,1.716-2.484Z" transform="translate(-911.644 -352.975)" fill="#e28b6d"/>
    <path id="Path_493" data-name="Path 493" d="M1430.665,673.655c-.15.819-.327,1.633-.509,2.444s-.384,1.618-.57,2.425l-.616,2.416c-.216.8-.432,1.605-.673,2.4l-.2-.042c.108-.829.267-1.647.431-2.464s.364-1.626.558-2.434.41-1.614.644-2.412.466-1.6.737-2.388Z" transform="translate(-938.613 -374.769)" fill="#e28b6d"/>
    <path id="Path_494" data-name="Path 494" d="M1436.456,656.44a33.879,33.879,0,0,1-.251,8.486c-.121.7-.243,1.4-.406,2.095-.079.348-.166.693-.265,1.035l-.072.258-.033.121a.078.078,0,0,0-.01-.059.084.084,0,0,0-.055-.038.085.085,0,0,0-.066.014l.181-.16q.8-.7,1.606-1.39l.822-.679c.146-.114.266-.212.438-.338a.648.648,0,0,1,1,.434l.052.275c.019.183.051.364.053.552a4.658,4.658,0,0,1,.006.549,4.846,4.846,0,0,1-.035.547,9.848,9.848,0,0,1-.453,2.118,17.878,17.878,0,0,1-1.839,3.87,32.606,32.606,0,0,1-2.516,3.438c-.456.544-.943,1.06-1.412,1.59l-1.483,1.521-.144-.142,1.419-1.567c.446-.544.911-1.074,1.342-1.629a32.2,32.2,0,0,0,2.414-3.444,19.034,19.034,0,0,0,1.753-3.784,9.427,9.427,0,0,0,.42-2.019,4.541,4.541,0,0,0,.029-.51,4.7,4.7,0,0,0-.009-.508,4.629,4.629,0,0,0-.052-.5l-.047-.242c-.015-.079-.018-.072-.041-.1a.142.142,0,0,0-.172-.016l-.4.308-.817.664q-.811.675-1.606,1.374l-.213.192a.4.4,0,0,1-.624-.429l.038-.136.072-.252c.1-.336.187-.674.268-1.015.166-.68.3-1.367.43-2.061a38.384,38.384,0,0,0,.475-4.185,31,31,0,0,0,.01-4.215Z" transform="translate(-941.663 -359.689)" fill="#e28b6d"/>
    <path id="Path_495" data-name="Path 495" d="M594.357,1417.7s-15.612-6.158-21.989,5.625c-8.017,14.816,4.03,32.224,4.03,32.224h21.191Z" transform="translate(-184.203 -1027.247)" fill="#fbc343"/>
    <path id="Path_496" data-name="Path 496" d="M618.928,1468.375a8.326,8.326,0,0,0-1.043,1.363,11.168,11.168,0,0,0-.792,1.528,17.351,17.351,0,0,0-1.049,3.282,26.635,26.635,0,0,0-.535,6.874,33.267,33.267,0,0,0,1.063,6.831,39.873,39.873,0,0,0,2.374,6.521l-.181.089c-.264-.519-.544-1.033-.781-1.567-.121-.265-.251-.527-.364-.8l-.343-.807c-.429-1.091-.816-2.194-1.141-3.319a30.468,30.468,0,0,1-1.142-6.927,25.016,25.016,0,0,1,.623-7,17.443,17.443,0,0,1,1.155-3.329,11.569,11.569,0,0,1,.874-1.536,7.789,7.789,0,0,1,1.138-1.354Z" transform="translate(-224.059 -1073.065)" fill="#102048"/>
    <path id="Path_497" data-name="Path 497" d="M746.086,867.451c5.121,3.124,8.66,1.267,9.7-2.106s4.814-16.076-10.986-14.028c0,0-19.363-7.807-27.556,3.711-7.229,10.16-.6,17.185-11.638,25.609-7.7,5.875-16.432,16.2.886,33.849l18.784-5.175Z" transform="translate(-295.659 -528.669)" fill="#ae5140"/>
    <path id="Path_498" data-name="Path 498" d="M985.09,1124.66c.383,1.787,4.526,6.415,6.183,8.153,5.013,5.248,6.119,15.1-8.172,18.1l-8.04-18.728Z" transform="translate(-540.496 -771.146)" fill="#6f3428"/>
    <path id="Path_499" data-name="Path 499" d="M926.143,1093.574l-1.69,7.78-2.626,12.108-14.657-3.1,3.449-23.744,14.945,6.694Z" transform="translate(-480.836 -737.718)" fill="#f9b384"/>
    <path id="Path_500" data-name="Path 500" d="M1138.06,1017.09s4.23,4.743,4.081,5.949-4.081,3.37-4.081,3.37Z" transform="translate(-683.735 -676.617)" fill="#e28b6d"/>
    <path id="Path_501" data-name="Path 501" d="M994.906,1139.984l-1.69,7.779c-4.509-2.4-7.8-8.333-7.8-8.333l8.908.295Z" transform="translate(-549.6 -784.126)" fill="#e28b6d"/>
    <path id="Path_502" data-name="Path 502" d="M951.143,925.593c-.594,4.508-2.094,7.971-5.3,8.281-8.861.858-21.614-9.067-21.614-9.067l.687-18.177,9.637-5.94,15.592,2.89c.187,2.052,1.143,8.328,1.3,14.641A48.234,48.234,0,0,1,951.143,925.593Z" transform="translate(-495.828 -574.328)" fill="#f9b384"/>
    <path id="Path_503" data-name="Path 503" d="M921.687,887.789l-1.923,1.482c-10.024-7.822-7.947,3.445-8.878,7.054s-5.681,2.657-9.388.325l-.661,5.052-11.141.352-.646-14.118,11.11-8.685,20.566,4.012Z" transform="translate(-464.913 -555.488)" fill="#ae5140"/>
    <path id="Path_504" data-name="Path 504" d="M854.524,1066.4c5.472-2.936,3.921-10.6,1.79-13.214s-11.181-7.022-12.279-15.275c-.606-4.592,4.032-10.014,4.032-10.014l-9.419-5.053L829,1038l7.281,26.056Z" transform="translate(-412.143 -681.67)" fill="#ae5140"/>
    <path id="Path_505" data-name="Path 505" d="M760.386,1307.479l-45.932.032c-2.006-29.411,5.324-44.449,11.662-51.837a18.24,18.24,0,0,1,16.1-6.2c5.289.651,9.879,3.164,14.532,14.114L735,1273.7l13.957,24.576a16.157,16.157,0,0,0,5.883,5.966Z" transform="translate(-311.187 -880.701)" fill="#708cd5"/>
    <path id="Path_506" data-name="Path 506" d="M886.41,1450.33s6.834,27.356,9.367,30.955c2.637,3.749,8.3,2.807,18.165,2.828h0l-12.465-27.771-15.068-6.012" transform="translate(-462.593 -1057.335)" fill="#1f3c88"/>
    <path id="Path_507" data-name="Path 507" d="M942.171,1403.379l-1.974,7.273-26.255.163h-2.151l-5.541-3.242a16.154,16.154,0,0,1-5.883-5.966l-13.957-24.576,21.743-10.112c2.337,5.484,4.684,13.093,7.139,23.64a4.64,4.64,0,0,0,2.657,3.2Z" transform="translate(-462.593 -984.037)" fill="#708cd5"/>
    <path id="Path_508" data-name="Path 508" d="M957.949,1011.452c-.789-4.38-5.986-4.96-6.891-2s-.684,8.044,5.842,7.742Z" transform="translate(-519.064 -668.29)" fill="#f9b384"/>
    <path id="Path_509" data-name="Path 509" d="M967.717,1023.488l-.813-.929a3.905,3.905,0,0,0-.841-.735.761.761,0,0,0-.806-.067,3.557,3.557,0,0,0-.825.755l-.27-.136a2.165,2.165,0,0,1,.727-1.193,1.28,1.28,0,0,1,.793-.266,1.588,1.588,0,0,1,.771.242,3.108,3.108,0,0,1,.97.994,4.669,4.669,0,0,1,.555,1.187Z" transform="translate(-530.917 -679.982)" fill="#e28b6d"/>
    <path id="Path_510" data-name="Path 510" d="M1112.52,1053.094c-.223.046-4.39-1.151-4.39-5.075a3.985,3.985,0,0,1,3.927-3.879,3.51,3.51,0,0,1,1,.139A42.808,42.808,0,0,1,1112.52,1053.094Z" transform="translate(-657.434 -700.388)" fill="#ee6f57" opacity="0.2"/>
    <path id="Path_511" data-name="Path 511" d="M1372.831,1409.057H1318.19l10.322-44.458h54.641Z" transform="translate(-842.028 -981.998)" fill="#1f3c88"/>
    <path id="Path_512" data-name="Path 512" d="M1372.831,1409.057l10.322-44.458c-15.618,36.141-38.825,40.147-64.963,44.458" transform="translate(-842.028 -981.998)" fill="#102048" opacity="0.6"/>
    <ellipse id="Ellipse_78" data-name="Ellipse 78" cx="3.895" cy="3.278" rx="3.895" ry="3.278" transform="translate(504.114 407.156) rotate(-67.25)" fill="#fff"/>
    <path id="Path_513" data-name="Path 513" d="M1774.027,1457.7l-.165,4.518-.745,20.246v.026a10.306,10.306,0,0,1-4.043,7.781h-22.767l-47.552.16c-.849,0-1.715-1.975-.459-2.952,2.776-2.171,7.124-4.56,10.148-6.493a8.465,8.465,0,0,1,5.624-1.276c3.273.418,7.993,2.078,13.865.347a23.415,23.415,0,0,1,3.1-.693l19.138-2.941,7.532-1.158.212-12.76.068-3.861q1.076-.287,2.208-.511A45.04,45.04,0,0,1,1774.027,1457.7Z" transform="translate(-1175.498 -1063.52)" fill="#f9b384"/>
    <path id="Path_514" data-name="Path 514" d="M2211.236,1457.7l-.165,4.518c-2.781-.977-13.525-4.032-15.881-3.571h0q1.076-.287,2.208-.512A44.868,44.868,0,0,1,2211.236,1457.7Z" transform="translate(-1612.708 -1063.522)" fill="#e28b6d" opacity="0.6"/>
    <path id="Path_515" data-name="Path 515" d="M2240.6,1662.923v.025a10.307,10.307,0,0,1-4.043,7.781h-6.918C2230.85,1664.076,2235.891,1662.007,2240.6,1662.923Z" transform="translate(-1642.982 -1243.975)" fill="#ee6f57" opacity="0.3"/>
    <path id="Path_516" data-name="Path 516" d="M2169,1601.546a9.865,9.865,0,0,1,2.539-.7,10.18,10.18,0,0,1,2.653-.037,10.469,10.469,0,0,1,2.58.606,8.7,8.7,0,0,1,2.324,1.261l-.167.252a16.4,16.4,0,0,0-2.369-.866,14.852,14.852,0,0,0-2.456-.485,13.417,13.417,0,0,0-2.5-.073,18.429,18.429,0,0,0-2.511.334Z" transform="translate(-1589.693 -1189.507)" fill="#e28b6d"/>
    <rect id="Rectangle_551" data-name="Rectangle 551" width="275.938" height="6.115" rx="3.057" transform="translate(360 426.799)" fill="#d3dfff"/>
    <path id="Path_517" data-name="Path 517" d="M1364.791,356.776a12.625,12.625,0,0,1-8.443,11.826h-6.511a12.34,12.34,0,0,1-8.7-11.826,11.826,11.826,0,1,1,23.651,0Z" transform="translate(-862.195 -85.961)" fill="#fbc343" opacity="0.2"/>
    <line id="Line_134" data-name="Line 134" y2="8.83" transform="translate(490.771 247.13)" fill="none" stroke="#fbc343" stroke-miterlimit="10" stroke-width="8.53"/>
    <line id="Line_135" data-name="Line 135" x1="7.739" y1="5.778" transform="translate(474.748 252.69)" fill="none" stroke="#fbc343" stroke-miterlimit="10" stroke-width="8.53"/>
    <line id="Line_136" data-name="Line 136" y1="5.778" x2="7.739" transform="translate(499.053 252.69)" fill="none" stroke="#fbc343" stroke-miterlimit="10" stroke-width="8.53"/>
    <line id="Line_137" data-name="Line 137" x1="1.614" y1="4.142" transform="translate(484.943 252.69)" fill="none" stroke="#fbc343" stroke-miterlimit="10" stroke-width="8.53"/>
    <line id="Line_138" data-name="Line 138" y1="4.142" x2="1.614" transform="translate(494.983 252.69)" fill="none" stroke="#fbc343" stroke-miterlimit="10" stroke-width="8.53"/>
    <path id="Path_518" data-name="Path 518" d="M1391.444,403.837a7.592,7.592,0,0,0-15.116-.3,6.737,6.737,0,0,0,2.088,5.161,7.261,7.261,0,0,1,2.339,5.189v.28h6.511v-.581a7.137,7.137,0,0,1,2.182-4.987A6.741,6.741,0,0,0,1391.444,403.837Z" transform="translate(-893.112 -131.523)" fill="#fbc343"/>
    <path id="Path_519" data-name="Path 519" d="M1411.821,559.57h6.511v.161a3.256,3.256,0,0,1-3.256,3.256h0a3.256,3.256,0,0,1-3.256-3.256v-.161Z" transform="translate(-924.307 -274.563)" fill="#fbc343"/>
    <circle id="Ellipse_79" data-name="Ellipse 79" cx="1.788" cy="1.788" r="1.788" transform="translate(486.557 269.489)" fill="#fff" opacity="0.8"/>
  </g>
</svg>
