<svg xmlns="http://www.w3.org/2000/svg" width="42.796" height="36.607" viewBox="0 0 42.796 36.607">
  <g id="fitness-outline" transform="translate(-2.25 -4.5)">
    <path id="Path_239" data-name="Path 239" d="M32.719,5.625c-6.341,0-9.466,6.238-9.466,6.238s-3.125-6.238-9.466-6.238A9.43,9.43,0,0,0,4.5,15.061c-.107,10.656,8.471,18.234,17.873,24.6a1.565,1.565,0,0,0,1.759,0c9.4-6.368,17.98-13.946,17.873-24.6a9.431,9.431,0,0,0-9.286-9.436Z" transform="translate(0.395 0)" fill="none" stroke="#5f4591" stroke-linecap="round" stroke-linejoin="round" stroke-width="2.25"/>
    <path id="Path_240" data-name="Path 240" d="M3.375,20.373H14.291l4.678-9.123,4.678,15.2,4.678-9.123,3.119,6.082H43.921" transform="translate(0 2.335)" fill="none" stroke="#5f4591" stroke-linecap="round" stroke-linejoin="round" stroke-width="2.25"/>
  </g>
</svg>
