<svg xmlns="http://www.w3.org/2000/svg" width="250.889" height="162.787" viewBox="0 0 250.889 162.787">
  <g id="grou_p_exters" data-name="grou p exters" transform="translate(16.699)">
    <path id="Path_253" data-name="Path 253" d="M266.5,580.688q-2.93.359-5.911.517c-.561.028-161.418.107-161.418.107a1.5,1.5,0,0,1-.337-.025c-.864-.081-1.715-.16-2.579-.267a1.914,1.914,0,0,1,0-3.792c.842-.107,1.715-.185,2.579-.253a1.716,1.716,0,0,0,.359-.025s160.826.065,161.388.093c1.99.107,3.955.281,5.922.519A1.58,1.58,0,0,1,266.5,580.688Z" transform="translate(-90.976 -418.525)" fill="#c7c6c6"/>
    <path id="Path_254" data-name="Path 254" d="M127.781,133.947c-3.7-1.8-7.106-4.166-11.527-4.824-3.3-.5-6.711.05-10.081.077-6.761.055-13.217-1.955-17.667-5.5s-6.446-8.272-5.462-12.932c1.525-7.24,10.031-13.6,8.716-20.86-.866-4.759-5.774-8.58-9.618-12.565C76,70.957,72.3,62.55,77,55.593c5.09-7.538,18-10.791,25.565-17.24,5.343-4.536,7.776-10.469,13.255-14.918,5.407-4.394,13.287-6.948,21.234-8.627,10.533-2.236,21.9-3.174,32.575-1.31,12.467,2.171,23.325,8.173,29.74,15.927s8.449,17.133,6.237,25.949c-1.172,4.655-3.462,9.486-1.364,13.982,2.137,4.593,8.278,7.58,13.315,10.9,4.663,3.077,8.684,6.779,10.5,11.072a11.027,11.027,0,0,1-2.721,12.8c-2.294,2.1-5.55,3.62-7.915,5.687-7.185,6.278-4.413,15.568-8.506,23.076-4.923,9.024-20.991,14.225-34.064,11.022-5.778-1.417-10.686-4.149-16.094-6.124C148.552,134.074,137.157,138.515,127.781,133.947Z" transform="translate(5.167 -3.823)" fill="#f6f6f6"/>
    <path id="Path_408" data-name="Path 408" d="M120.041,149.876c-3.163-2.041-6.067-4.713-9.841-5.456-2.816-.561-5.729.056-8.606.087a20.483,20.483,0,0,1-15.082-6.223,17.263,17.263,0,0,1-4.663-14.628c1.3-8.19,8.563-15.384,7.441-23.6-.739-5.383-4.93-9.706-8.211-14.213-5.249-7.222-8.405-16.731-4.394-24.6,4.346-8.527,15.363-12.207,21.825-19.5,4.562-5.131,6.639-11.842,11.316-16.874,4.616-4.971,11.343-7.859,18.128-9.759,8.992-2.529,18.693-3.59,27.81-1.482a41.208,41.208,0,0,1,25.389,18.016A41.156,41.156,0,0,1,186.478,61c-1,5.265-2.956,10.73-1.165,15.816,1.825,5.2,7.067,8.575,11.367,12.333,3.981,3.48,7.414,7.668,8.965,12.524s1,10.449-2.323,14.48c-1.958,2.38-4.738,4.1-6.757,6.433-6.134,7.1-3.768,17.609-7.262,26.1-4.2,10.208-17.921,16.091-29.081,12.468-4.933-1.6-9.123-4.693-13.739-6.927C137.773,150.019,128.045,155.043,120.041,149.876Z" transform="translate(-91.569 -12.504)" fill="#f6f6f6"/>
    <path id="Path_255" data-name="Path 255" d="M146.852,169.988s-.4,1.791-1.072,4.454a116.5,116.5,0,0,1-5.484,17.017,20.158,20.158,0,0,1-2.344,4.123c-4.21,5.333-21.168-6.891-23.332-8.479a.817.817,0,0,0-.5-.168c-1.2,0-5.959-.267-5.894-3.579.081-3.609,2.579-8.154,8.019-3.026,3.368,3.158,15.224,7.087,15.224,7.087l3.865-24.98a1.7,1.7,0,0,1,2.86-.982C140.321,163.462,143.59,166.625,146.852,169.988Z" transform="translate(-100.782 -119.31)" fill="#f5a784"/>
    <path id="Path_256" data-name="Path 256" d="M227.326,207a116.488,116.488,0,0,1-5.484,17.017c-.065-7.208-.241-17.121-.241-17.121A6.21,6.21,0,0,1,227.326,207Z" transform="translate(-182.334 -151.866)" fill="#e0855c"/>
    <path id="Path_257" data-name="Path 257" d="M186.084,283.951c-3.138,2.226-6.641,4.365-10.124,6.478-1.653,1.008-3.247,2.018-4.743,3.009a144.456,144.456,0,0,0-12.754,9.5c1.751,2.1,3.579,6.933,5.237,12.428,3.318,11.033,5.97,24.795,5.97,24.795-3,2.742-5.538,1.544-5.538,1.544-2.358-4.581-7.429-14.233-11.7-23.195-3.983-8.367-7.258-16.119-6.947-18.578s6.809-9.579,13.554-16.417c7.449-7.55,15.2-14.735,15.2-14.735a48.564,48.564,0,0,1,9.694-8.039c3.584-2.111,7.511-3.32,10.506-1.35a9,9,0,0,1,3.214,4.381c.1.264.2.53.281.8C200.244,271.933,194.3,278.18,186.084,283.951Z" transform="translate(-127.569 -189.379)" fill="#f5a784"/>
    <path id="Path_258" data-name="Path 258" d="M338.513,321.812c-8.238.39-16.818,1.325-23.751,1.872-5.984.474-10.747.682-13.026,0-4.446-1.288-11.682-11.819-16.476-19.51-2.857-4.592-4.85-8.176-4.85-8.176s-1.187-1.566-2.619-3.946c-3.806-6.352-9.338-18.477,1.538-21.761,4.656-1.4,7.8-.365,10.309,2.38,3.348,3.671,5.557,10.385,8.7,18.4.8,2.018,8.625,21.438,8.625,21.438a33.59,33.59,0,0,1,7.724-.7c10.946.065,24.441,3.323,24.441,3.323C341.618,318.352,338.513,321.812,338.513,321.812Z" transform="translate(-219.278 -197.489)" fill="#f5a784"/>
    <path id="Path_259" data-name="Path 259" d="M227.652,74.749c3.158-.881,6.307-1.8,9.425-2.824,1.83-.6,3.848-.634,4.53-2.742a6.059,6.059,0,0,0-.943-5.178,7.25,7.25,0,0,0-4.134-2.579,11.713,11.713,0,0,0-4.937,0c-2.316.452-4.684,1.521-5.86,3.567a8.087,8.087,0,0,0-.82,4.631,8.369,8.369,0,0,0,1.389,3.9c.1.174.8,1.608,1.165,1.468C227.562,74.974,227.629,74.755,227.652,74.749Z" transform="translate(-184.692 -47.505)" fill="#3b2645"/>
    <path id="Path_260" data-name="Path 260" d="M224.807,99.541a1.6,1.6,0,0,0-2.526.542c-.932,1.794,1.838,4.252,3.517,4.028A40.116,40.116,0,0,0,224.807,99.541Z" transform="translate(-182.689 -74.806)" fill="#e0855c"/>
    <path id="Path_261" data-name="Path 261" d="M240.827,120.341a96.012,96.012,0,0,0-1.569,15.2c0,.483,0,.923.034,1.364.157,3.124,1.76,17.845,2.015,20.164.02.194.039.3.039.3-10.1,5.254-21.775,5.032-23.257,5.013h-.157c-.031-.123-.1-.323-.2-.629-.909-2.714-4.384-13.882-7.194-23.734l-.132-.449c-1.451-5.083-3.609-8.948-4.182-11.9-.213-1.092,3.236-2.352,4.917-2.961.247-.093.505-.177.761-.261,1.333-.463,2.692-.842,3.786-1.137.662-.163,2.262-.525,2.262-.525l-.7-5.956a4.241,4.241,0,0,0,.6-.025,8.371,8.371,0,0,0,1.123-.121,10.81,10.81,0,0,0,1.367-.312c.222-.07.432-.129.62-.2.281-.107.561-.213.842-.337a10.916,10.916,0,0,0,1.266-.646,2.574,2.574,0,0,0,.354-.222.166.166,0,0,0,.093-.059l.281-.174a11.077,11.077,0,0,0,1.4-1.123c.241-.233.449-.429.62-.6.053-.065.079-.087.107-.118a3.056,3.056,0,0,0,.21-.247.783.783,0,0,0,.146-.177v.413c.076.988.208,2.245.418,3.483.121.842.264,1.684.393,2.431.233,1.269.429,2.172.429,2.172a8.012,8.012,0,0,1,.842-.14.129.129,0,0,1,.087-.017c.157-.025.312-.051.458-.065a25.988,25.988,0,0,1,3.191-.281c.449-.014.884,0,1.308,0a24.065,24.065,0,0,1,6.989,1.148.646.646,0,0,1,.429.727Z" transform="translate(-171.268 -82.973)" fill="#f5a784"/>
    <path id="Path_262" data-name="Path 262" d="M254.566,110.46c-.045,7.017-6.888,8-8.662,7.449l-.365-3.087A12.084,12.084,0,0,0,254.566,110.46Z" transform="translate(-199.554 -82.966)" fill="#e0855c"/>
    <path id="Path_263" data-name="Path 263" d="M228.5,76c-.657,1.058-.306,3.043.09,5.235,1.193,6.635,3.607,8.274,7.053,7.918s6.688-2.405,6.107-8.67c-.281-3.135-.505-6.04-1.9-7.124C237.775,71.748,230.517,72.759,228.5,76Z" transform="translate(-187.035 -55.737)" fill="#f5a784"/>
    <path id="Path_264" data-name="Path 264" d="M273.826,92.52s.446-2.95,2.383-1.85.561,5.7-1.984,5.928C274.225,96.6,273.234,93.623,273.826,92.52Z" transform="translate(-219.766 -68.554)" fill="#f5a784"/>
    <path id="Path_265" data-name="Path 265" d="M238.274,96.543s-.525.334-.654-.693c-.115-.923.314-.887.314-.887s.4-.09.505.719S238.274,96.543,238.274,96.543Z" transform="translate(-193.843 -71.816)" fill="#3b2645"/>
    <path id="Path_266" data-name="Path 266" d="M258.794,92.146s-.525.331-.654-.7c-.115-.923.317-.887.317-.887s.4-.087.505.719S258.794,92.146,258.794,92.146Z" transform="translate(-208.604 -68.652)" fill="#3b2645"/>
    <path id="Path_267" data-name="Path 267" d="M247.555,95.381c-.3.02-.921.334-1.123.051a8.546,8.546,0,0,1-.02-2.144,26.482,26.482,0,0,0,.081-2.866c0-.051-.1-.062-.107,0a32.513,32.513,0,0,0-.258,5.26.146.146,0,0,0,.174.152c.424-.1.842-.1,1.277-.182C247.718,95.606,247.71,95.373,247.555,95.381Z" transform="translate(-199.978 -68.522)" fill="#e0855c"/>
    <path id="Path_268" data-name="Path 268" d="M236.148,89.1c-.452-.121-1.227,0-1.434.474a.129.129,0,0,0,.152.166c.2-.053.356-.191.561-.25a1.726,1.726,0,0,1,.657-.039.18.18,0,0,0,.065-.351Z" transform="translate(-191.762 -67.569)" fill="#3b2645"/>
    <path id="Path_269" data-name="Path 269" d="M257.1,85.562c-.356-.528-1.378-.368-1.735.084a.168.168,0,0,0,.129.255,3.694,3.694,0,0,0,.783-.16,2.646,2.646,0,0,1,.665.062.166.166,0,0,0,.157-.241Z" transform="translate(-206.605 -64.819)" fill="#3b2645"/>
    <path id="Path_270" data-name="Path 270" d="M248.961,111.975c-.646.331-.988.825-1.754.963a2.408,2.408,0,0,1-1.14-.031c-.216-.065-.2-.1-.424-.1a.109.109,0,0,0-.09.146c.18.64,1.2.533,1.7.455a2.408,2.408,0,0,0,1.872-1.257C249.171,112.062,249.064,111.927,248.961,111.975Z" transform="translate(-199.559 -84.049)" fill="#e0855c"/>
    <path id="Path_271" data-name="Path 271" d="M243.695,290.956c-.443.32-.873.637-1.3.923-.348.253-.69.483-1.033.7a37.495,37.495,0,0,1-13.02,5.737c-2.857-4.592-4.85-8.176-4.85-8.176s-1.187-1.566-2.619-3.946c-3.138,2.226-6.641,4.364-10.124,6.478-1.653,1.008-3.247,2.018-4.743,3.009q-2.136-1.3-3.89-2.543a43.2,43.2,0,0,1-8.286-7.379c7.449-7.55,15.2-14.735,15.2-14.735a48.564,48.564,0,0,1,9.694-8.039c3.6-1.061,7.427-1.768,10.506-1.35a9,9,0,0,1,3.214,4.381c.1.264.2.53.281.8,3.348,3.671,5.557,10.385,8.7,18.4C242.218,287.235,242.976,289.157,243.695,290.956Z" transform="translate(-162.358 -191.624)" fill="#ab8ea9"/>
    <path id="Path_272" data-name="Path 272" d="M187.526,486.175c-3,2.742-5.538,1.544-5.538,1.544-2.358-4.581-7.429-14.233-11.7-23.195a53.838,53.838,0,0,0,11.266-3.144C184.874,472.413,187.526,486.175,187.526,486.175Z" transform="translate(-145.425 -335.392)" fill="#e8cfe5"/>
    <path id="Path_273" data-name="Path 273" d="M189.547,544.6a1.524,1.524,0,0,1,0,.424,2.705,2.705,0,0,1-.988,1.684,7.8,7.8,0,0,1-2.133,1.123c-2.984,1.207-5.571,2.933-8.743,3.784-1.9.5-5.818,1.4-6.68-1.179a.453.453,0,0,0-.031-.135,3.088,3.088,0,0,1-.051-.8,2.931,2.931,0,0,1,.115-.648c.281-.994,1.159-2.22,3.593-3.009a6.529,6.529,0,0,0,1.378-.606,5.357,5.357,0,0,0,.592-.382,1.483,1.483,0,0,0,.118-.1,7.477,7.477,0,0,0,.612-.581l.194-.236a.468.468,0,0,0,.07-.084c.079-.107.157-.222.225-.328a4.69,4.69,0,0,0,.309-.561.4.4,0,0,0,.042-.073c.171-.351.281-.629.4-.9.368-.96.626-1.734,1.451-1.965,1.951-.5,4.83-.036,4.9,1.984,0,0,2.433-.281,2.636-1.743.135-.929.629-.2.822.281.337.811.281,1.743.646,2.582.051.115.1.216.152.331a3.609,3.609,0,0,1,.368,1.055A.279.279,0,0,1,189.547,544.6Z" transform="translate(-145.874 -391.82)" fill="#3b2645"/>
    <path id="Path_274" data-name="Path 274" d="M445.485,429.828c-8.238.39-16.818,1.325-23.751,1.872a30.593,30.593,0,0,0,.561-7.463,18.007,18.007,0,0,0-.626-4.407c10.946.065,24.441,3.323,24.441,3.323C448.589,426.367,445.485,429.828,445.485,429.828Z" transform="translate(-326.249 -305.504)" fill="#e8cfe5"/>
    <path id="Path_275" data-name="Path 275" d="M507.108,442.235c-.115,1.965-.46,5.97-3.186,5.987l-.138-.014a2.755,2.755,0,0,1-.963-.281,2.2,2.2,0,0,1-.407-.227c-.842-.575-1.749-1.8-1.74-4.345a6.5,6.5,0,0,0-.149-1.5,6.928,6.928,0,0,0-.182-.682.656.656,0,0,1-.053-.14,5.8,5.8,0,0,0-.323-.668,3.673,3.673,0,0,0-.211-.354.861.861,0,0,0-.059-.093,2.186,2.186,0,0,0-.146-.194,4.58,4.58,0,0,0-.539-.6.242.242,0,0,1-.056-.065.616.616,0,0,1-.087-.079c-.227-.2-.438-.393-.646-.561-.792-.662-1.46-1.137-1.4-1.99.118-2.01,1.459-4.6,3.393-4.039,0,0,.486-2.4-.842-3.048-.842-.421,0-.66.514-.7.879-.067,1.749.281,2.666.191.115-.02.233-.031.359-.045a3.507,3.507,0,0,1,1.123-.02.28.28,0,0,1,.1,0,2.526,2.526,0,0,1,1.684,1.6,7.511,7.511,0,0,1,.4,2.372C506.438,435.965,507.279,438.951,507.108,442.235Z" transform="translate(-380.305 -311.841)" fill="#3b2645"/>
    <path id="Path_276" data-name="Path 276" d="M193.732,558.168c-.665-.682-1.26-1.423-1.945-2.094l-.227-.213a5.684,5.684,0,0,0,.612-.581c.087.09.166.171.253.25a12.78,12.78,0,0,1,1.85,2.133C194.49,558.008,194.038,558.482,193.732,558.168Z" transform="translate(-160.725 -402.937)" fill="#e8cfe5"/>
    <path id="Path_277" data-name="Path 277" d="M198.285,552.891a.314.314,0,0,1-.424.4,11.711,11.711,0,0,1-1.85-1.533,6.3,6.3,0,0,0-.561-.41,4.7,4.7,0,0,0,.309-.561.4.4,0,0,0,.042-.073,2.321,2.321,0,0,1,.626.351A4.664,4.664,0,0,1,198.285,552.891Z" transform="translate(-163.523 -399.649)" fill="#e8cfe5"/>
    <path id="Path_278" data-name="Path 278" d="M189.515,558.36a2.706,2.706,0,0,1-.988,1.684,7.8,7.8,0,0,1-2.133,1.123c-2.984,1.207-5.571,2.933-8.743,3.783-1.9.5-5.818,1.4-6.68-1.179a.453.453,0,0,0-.031-.135,2.955,2.955,0,0,1-.051-.8c3.769,2.526,7.385.236,11.21-.994C184.962,560.911,187.783,560.37,189.515,558.36Z" transform="translate(-145.851 -405.152)" fill="#e8cfe5"/>
    <path id="Path_279" data-name="Path 279" d="M506.774,460.174c-.126.317-.379.449-.646.634a7.545,7.545,0,0,0-.884.724,4.358,4.358,0,0,0-.432.514,4.587,4.587,0,0,0-.539-.6.241.241,0,0,1-.056-.065.61.61,0,0,1-.087-.079,3.971,3.971,0,0,1,.334-.418c.452-.486,1.328-1.4,2.057-1.185a.343.343,0,0,1,.253.469Z" transform="translate(-385.565 -334.163)" fill="#e8cfe5"/>
    <path id="Path_280" data-name="Path 280" d="M510.267,466.578a13.688,13.688,0,0,1-1.914,1.448,5.8,5.8,0,0,0-.323-.668,3.469,3.469,0,0,1,2.021-1.19.253.253,0,0,1,.216.41Z" transform="translate(-388.37 -338.836)" fill="#e8cfe5"/>
    <path id="Path_281" data-name="Path 281" d="M522.5,442.639c-.115,1.965-.46,5.97-3.186,5.987l-.138-.014a2.756,2.756,0,0,1-.963-.281c4-1.552,3.11-6.767,2.737-10.492-.281-2.953-.264-5.928-1.4-8.639a2.5,2.5,0,0,1,1.65,1.58,7.51,7.51,0,0,1,.4,2.372C521.825,436.368,522.667,439.355,522.5,442.639Z" transform="translate(-395.693 -312.244)" fill="#e8cfe5"/>
    <path id="Path_282" data-name="Path 282" d="M333.7,303.188c-.348.253-.69.483-1.033.7-3.671-8.794-6.986-17.856-11.847-26.033-.247-.429.34-.87.637-.455,3.04,4.131,4.844,9.228,6.958,13.865C330.215,295.215,332.054,299.18,333.7,303.188Z" transform="translate(-253.661 -202.933)" fill="#e8cfe5"/>
    <path id="Path_283" data-name="Path 283" d="M242.107,349.45c-3.138,2.226-6.641,4.365-10.124,6.478-1.653,1.008-3.247,2.018-4.743,3.009q-2.136-1.3-3.89-2.543C234.089,350.27,241.883,349.472,242.107,349.45Z" transform="translate(-183.593 -254.878)" fill="#836c80"/>
    <path id="Path_284" data-name="Path 284" d="M252.427,177.845c-10.1,5.254-21.775,5.052-23.257,5.013l-.171-.042c-.017-.087-.081-.281-.185-.592-.909-2.714-4.384-13.882-7.194-23.734,1.544-5.052,1.451-12.863,1.364-15.572,1.333-.463,2.692-.842,3.786-1.137.081,2.641.78,9.223,5.846,9.4,5.984.2,7.154-8.274,7.376-11.957a25.988,25.988,0,0,1,3.191-.281c.449-.014.884,0,1.308,0a23.808,23.808,0,0,0,.244,7.455,22.4,22.4,0,0,0,5.636,10.983c.076,1.586.525,6.088.971,10.464C251.8,172.17,252.427,177.845,252.427,177.845Z" transform="translate(-182.348 -103.451)" fill="#3b2645"/>
    <path id="Path_285" data-name="Path 285" d="M309.55,176.542c.073,1.547.522,6.049.968,10.424a35.7,35.7,0,0,1-6.6-21.446,22.4,22.4,0,0,0,5.636,10.983Z" transform="translate(-241.523 -122.572)" fill="#291b30"/>
    <path id="Path_286" data-name="Path 286" d="M136.871,233.713c-.581,2.108-1.634,4.014-2.268,6.091-.328,1.072,1.2,1.527,1.83.842,1.572-1.726,2.352-4.283,2.941-6.495C139.8,232.563,137.3,232.156,136.871,233.713Z" transform="translate(-119.722 -170.919)" fill="#ab8ea9"/>
    <path id="Path_287" data-name="Path 287" d="M230.866,109.462a17.808,17.808,0,0,0,1.123,1.4,5.263,5.263,0,0,1,.387.505c2.268,3.18,2.672,6.846,3.8,10.365.138-.208.281-.413.413-.626-.334-1.372-.62-2.753-.985-4.109.561-2.113.988-4.036,2.5-5.768a24.19,24.19,0,0,0,2.807-3.275,9.708,9.708,0,0,0,1.148-4.075,12.6,12.6,0,0,1,.741-4.146,1.192,1.192,0,0,0,.112-.351.912.912,0,0,0-.376-.786.64.64,0,0,0-.337-.154.311.311,0,0,0-.309.166.477.477,0,0,0-.017.236,14.431,14.431,0,0,1-.149,2.627c-.1.923-.143,1.852-.247,2.773a9.313,9.313,0,0,1-2.807,5.613,11.141,11.141,0,0,0-3.287,6.416,17.124,17.124,0,0,0-1.479-3.609c-.876-1.541-2.077-2.821-3.048-4.291a9.857,9.857,0,0,1-1.372-3.368,6.387,6.387,0,0,1-.258-1.7c.039-.561.267-1.7-.087-2.189-.561-.747-.769.132-.69.654.177,1.123.166,2.29.41,3.413a11.48,11.48,0,0,0,1.684,3.82C230.649,109.162,230.756,109.313,230.866,109.462Z" transform="translate(-187.249 -74.323)" fill="#ab8ea9"/>
    <path id="Path_288" data-name="Path 288" d="M256.946,189.227c-.935,1.072-.744,2.944-.724,4.263a23.233,23.233,0,0,1,.2,3.3c-.112.842-.393,2.066-1.218,2.5a2.47,2.47,0,0,1-.935.225,2.124,2.124,0,0,1-.842-.045,2.218,2.218,0,0,1-1-.808c-1.053-1.314-.842-2.487-.909-4.059a4.835,4.835,0,0,0-1.6-3.441c-2.748-2.88-1.311-5.333-.483-8.566,1.069-4.174,1.451-9.518-.326-13.548a.031.031,0,0,0-.059.014,61.837,61.837,0,0,1,.64,7.825,36.354,36.354,0,0,1-1.684,8.322c-.438,1.558-.761,3.247.065,4.743a6.983,6.983,0,0,0,1.221,1.429c1.532,1.569,1.541,2.919,1.664,4.979.132,2.245,2.349,4.979,4.771,3.242A3.9,3.9,0,0,0,257,196.275c0-1.075-.23-2.144-.281-3.219a8.777,8.777,0,0,1,.118-2.737,1.355,1.355,0,0,1,.236-.5,1.714,1.714,0,0,1,.864-.466,1.193,1.193,0,0,1,.561-.076,1.055,1.055,0,0,1,.561.382,5.937,5.937,0,0,1,1,1.639c.062.138.107.424.281.474s.385-.073.345-.264C260.314,189.94,258.711,187.206,256.946,189.227Z" transform="translate(-201.008 -125.094)" fill="#ab8ea9"/>
    <rect id="Rectangle_508" data-name="Rectangle 508" width="7" height="12.65" rx="1.08" transform="translate(56.936 67.216) rotate(-26.03)" fill="#e8cfe5"/>
    <path id="Path_289" data-name="Path 289" d="M300.269,143.024a1.474,1.474,0,0,1,1.339.382c2.936,2.835,17.357,17.014,18.637,23.206,1.333,6.456-18.261,11.423-20.787,12.038a.817.817,0,0,0-.435.264c-.749.879-3.893,4.255-6.3,2.147-2.633-2.3-4.449-6.978,2.734-7.834,4.432-.53,14.716-6.891,14.716-6.891l-12.35-9.473S293.789,144.452,300.269,143.024Z" transform="translate(-231.821 -106.366)" fill="#f5a784"/>
    <path id="Path_290" data-name="Path 290" d="M291.1,422.036c-5.894-.342-11.861-.051-17.755-.025s-11.872-.233-17.753.185a.129.129,0,1,0,0,.258c5.894.418,11.858.16,17.753.185s11.87.32,17.755-.022a.291.291,0,0,0,0-.581Z" transform="translate(-206.69 -306.972)" fill="#e8cfe5"/>
    <path id="Path_291" data-name="Path 291" d="M432.642,337.159c-6.523-.34-13.1-.1-19.63-.093s-13.161-.393-19.63.168a.241.241,0,0,0,0,.483c6.456.561,13.136.154,19.628.168s13.107.247,19.63-.093a.317.317,0,1,0,0-.634Z" transform="translate(-305.727 -245.876)" fill="#e8cfe5"/>
    <path id="Path_292" data-name="Path 292" d="M108.594,307.188c-4.437-.255-8.934-.062-13.377-.056s-8.982-.281-13.377.213a.14.14,0,1,0,0,.281c4.4.505,8.956.208,13.377.213s8.939.2,13.377-.056a.3.3,0,1,0,0-.6Z" transform="translate(-81.7 -224.381)" fill="#e8cfe5"/>
    <path id="Path_293" data-name="Path 293" d="M156.839,318.526a68.918,68.918,0,0,0-14.275.177.079.079,0,0,0,0,.149,69.7,69.7,0,0,0,14.275.18.253.253,0,0,0,0-.505Z" transform="translate(-125.443 -232.43)" fill="#e8cfe5"/>
    <path id="Path_294" data-name="Path 294" d="M376.459,108.277c-6.175-.34-12.437-.1-18.631-.087s-12.454-.2-18.628.233a.18.18,0,1,0,0,.359c6.175.435,12.442.222,18.628.233s12.445.25,18.631-.087a.326.326,0,0,0,0-.651Z" transform="translate(-266.797 -81.266)" fill="#e8cfe5"/>
    <path id="Path_295" data-name="Path 295" d="M542.076,101.5a3.675,3.675,0,0,1-1.4,1.255,7.553,7.553,0,0,1-1.65.665,5.18,5.18,0,0,1-4.491-.4c-.719-.536-1.229-1.4-2.074-1.684-1.339-.477-2.7.648-4.115.828a3.98,3.98,0,0,1-2.765-.786,7.759,7.759,0,0,1-1.934-2.2,6.969,6.969,0,0,0-2.04-2.526,5.357,5.357,0,0,0-2.832-.491c-1.21.034-2.568.171-3.337,1.123a16.2,16.2,0,0,1-1.019,1.476.96.96,0,0,1-1.123.241c-1.356-.533-.735-2-.208-2.866a7.244,7.244,0,0,1,5.919-3.5c.985-.025,1.965.163,2.944.191a9.261,9.261,0,0,0,3.059-.441c1.089-.365,2.1-.918,3.2-1.255a6.052,6.052,0,0,1,6.194,1.339A15.3,15.3,0,0,0,535.7,93.98a8.784,8.784,0,0,0,3.034,1.218,5.863,5.863,0,0,1,3.247,2.4A3.767,3.767,0,0,1,542.076,101.5Z" transform="translate(-391.567 -68.835)" fill="#3b2645"/>
    <path id="Path_296" data-name="Path 296" d="M545.48,111.935a7.555,7.555,0,0,1-1.65.665,5.18,5.18,0,0,1-4.491-.4c-.718-.536-1.229-1.4-2.074-1.684-1.339-.477-2.7.648-4.115.828a3.98,3.98,0,0,1-2.765-.786,7.759,7.759,0,0,1-1.934-2.2,6.968,6.968,0,0,0-2.041-2.526,5.357,5.357,0,0,0-2.832-.491c-1.21.034-2.568.171-3.337,1.123a16.184,16.184,0,0,1-1.019,1.476c-.758-3.357,3.522-4.471,6.049-4.35a6.54,6.54,0,0,1,4.491,2.021c.682.769,1.184,1.754,2.1,2.212a4.818,4.818,0,0,0,2.781.191c1.513-.2,3.205-.328,4.4.623.96.769,1.4,2.125,2.526,2.652,1.2.561,2.748-.062,3.887.62Z" transform="translate(-396.358 -78.016)" fill="#2c1b33"/>
    <path id="Path_297" data-name="Path 297" d="M433.271,312.156a31.571,31.571,0,0,1-3.682,3.292,43.352,43.352,0,0,1-4.112,2.807c-5.555,3.351-14.9,9.408-17.868,11.561a1.328,1.328,0,0,0-.415,1.684c1.184,2.271,2.386,7.017,3.466,12.31,2.142,10.621,3.767,23.529,3.767,23.529-1.513,2.175-5.333,1.227-5.333,1.227s-4.923-11.642-9.08-22.364c-3.135-8.14-5.832-15.743-5.6-17.34.561-3.915,13.273-16.158,22.361-24.677,5.122-4.811,9.1-8.42,9.1-8.7a10.82,10.82,0,0,1,10.256,5.192C438.41,304.426,436.669,308.507,433.271,312.156Z" transform="translate(-306.633 -216.026)" fill="#f5a784"/>
    <path id="Path_298" data-name="Path 298" d="M577.023,323.269a5.765,5.765,0,0,1-.432,2.4,8.207,8.207,0,0,1-.735,1.488s-12.451.862-24.208,1.123c-9.366.188-18.292,0-20.108-1.33-2.383-1.746-7.188-12.218-11.378-21.991-.682-1.572-1.339-3.127-1.965-4.623-3.059-7.247-5.453-13.141-5.737-13.217a10.862,10.862,0,0,1,8.291-7.966c6.98-1.479,13.391,8.285,13.753,16.181.062,1.5.244,3.231.486,5.072.811,6.175,2.375,13.5,3.023,16.417a1.3,1.3,0,0,0,1.46,1.01c2.644-.4,7.744-.087,13.324.5,10.9,1.156,23.675,3.368,23.675,3.368A3.005,3.005,0,0,1,577.023,323.269Z" transform="translate(-391.557 -204.206)" fill="#f5a784"/>
    <path id="Path_299" data-name="Path 299" d="M394.9,213.924c-.789-4.3-1.855-8.7-2.832-8.182-1.872,1-3.9,6.456-5.369,14.261s-4.21,10.225-4.21,10.225l-11.87.921c-3.031.244-5.956,1.019-8.58-.918a10.114,10.114,0,0,0-2.737-1.684,2.749,2.749,0,0,0-2.972.626c-1.4,1.765-.688,5.333,1.493,5.914a61.53,61.53,0,0,0,10.966,1.589,103.083,103.083,0,0,0,15.878.39c1.92-.079,4.7-3.769,7.051-7.528,2.439-3.9,4.4-7.859,4.4-7.859S395.619,217.837,394.9,213.924Zm-31.435,18.047a.483.483,0,0,1-.076-.039c.025,0,.053.017.081.02Z" transform="translate(-278.727 -151.475)" fill="#f5a784"/>
    <path id="Path_300" data-name="Path 300" d="M486.426,242.635s-1.965,3.966-4.4,7.859a49.46,49.46,0,0,0-.82-12.751c-.455-2.919,2.543-2.989,4.005-2.857C485.938,238.8,486.426,242.635,486.426,242.635Z" transform="translate(-369.045 -172.442)" fill="#e0855c"/>
    <path id="Path_301" data-name="Path 301" d="M504.762,198.11a43.243,43.243,0,0,1-15.075,3.567c-1.987-.536-2.307-1.027-2.307-1.027a7.959,7.959,0,0,1-.915-1.9c-.365-1.269-1.218-2.425-1.617-3.688-.8-2.526-.907-5.226-2.723-7.354a13.155,13.155,0,0,1-1.235-1.4c-.923-1.375-.828-3.163-.561-4.814.017-.1.034-.2.053-.295a46.346,46.346,0,0,0,.2-5.2c.087-1.269,1.263-1.737,2.439-2.116.224-.07,1.069-.345,1.243-.407.716-.225,1.451-.424,2.091-.578.949-.25,1.65-.407,1.65-.407l.154-6.124c-.163-2.868,6.256-4.19,6.256-4.19l.379,9.341c0,.067.365.034,1.01-.028.407-.042.926-.084,1.547-.138a.25.25,0,0,1,.112,0c.14-.017.281-.025.415-.034l.814-.053a9.679,9.679,0,0,1,1.735-.025,2.271,2.271,0,0,1,2.212,1.46c.674,2.049.281,4.39.1,6.472-.112,1.356-.138,2.678-.121,4.008,0,.415.017.822.025,1.235.062,1.479.157,2.947.281,4.423.017.216.025.424.042.64C503.019,190.03,504.22,198.11,504.762,198.11Z" transform="translate(-368.312 -120.163)" fill="#f5a784"/>
    <path id="Path_302" data-name="Path 302" d="M540.343,204.448c20.032,5.838,22.566,8.319,22.566,8.319q-.1,5.953-.2,11.906c-.048,3.04.455,6.02-1.723,8.451a7.973,7.973,0,0,0-2.161,3.186,2.464,2.464,0,0,0,.623,2.447c1.653,1.516,5.187,1.106,5.97-.98a62.137,62.137,0,0,0,2.616-10.769,90.2,90.2,0,0,0,1.881-15.763c0-7.615-20.006-14.017-25.261-15.563-.769-.227-1.364.32-2.088.654C539.754,197.641,538.359,203.872,540.343,204.448Zm22.51,27.436-.045.067a.357.357,0,0,1,.022-.081Z" transform="translate(-410.944 -144.23)" fill="#f5a784"/>
    <path id="Path_303" data-name="Path 303" d="M507.418,300.408a20.289,20.289,0,0,0-2.619.034c-.449.034-.9.07-1.33.14a26.615,26.615,0,0,0-10.879,4.37c-.682-1.572-1.339-3.127-1.965-4.623a31.581,31.581,0,0,1-3.682,3.292,20.168,20.168,0,0,0-2.187-2.748,62.673,62.673,0,0,0-10.626-8.51c5.122-4.811,9.1-8.42,9.1-8.7a10.593,10.593,0,0,1,3.113.166,10.478,10.478,0,0,1,6.84-4.673c6.98-1.479,13.391,8.285,13.753,16.181C506.994,296.833,507.177,298.567,507.418,300.408Z" transform="translate(-363.985 -204.206)" fill="#ab8ea9"/>
    <path id="Path_304" data-name="Path 304" d="M426.814,550.987a2.242,2.242,0,0,1-1.053,1.763,6.894,6.894,0,0,1-1.965.794c-2.723.8-5.142,2.1-8,2.577-1.709.281-5.226.733-5.762-1.608a.647.647,0,0,0-.017-.121,2.671,2.671,0,0,1,.182-1.271c.328-.842,1.21-1.847,3.413-2.332a6.147,6.147,0,0,0,1.26-.415,4.844,4.844,0,0,0,.561-.281,1.621,1.621,0,0,0,.146-.1,4.176,4.176,0,0,0,.744-.623.536.536,0,0,0,.07-.067,4.528,4.528,0,0,0,.544-.744.217.217,0,0,0,.042-.062c.166-.267.295-.508.424-.749.407-.814.7-1.471,1.443-1.591,1.754-.281,4.241.382,4.129,2.161,0,0,2.161-.045,2.464-1.305.2-.8.561-.121.7.312.225.741.1,1.555.345,2.324.034.1.07.2.1.3a3.142,3.142,0,0,1,.233.957A.307.307,0,0,1,426.814,550.987Z" transform="translate(-317.856 -396.325)" fill="#ea4a8e"/>
    <path id="Path_305" data-name="Path 305" d="M726.948,439.851a13.1,13.1,0,0,1-.587,1.8.794.794,0,0,0-.042.1,5.238,5.238,0,0,1-.926,1.527,2.108,2.108,0,0,1-1.659.789.949.949,0,0,1-.121,0,2.687,2.687,0,0,1-.923-.337c-.794-.457-1.737-1.538-1.642-4.059a7.258,7.258,0,0,0-.1-1.426,3.193,3.193,0,0,0-.121-.5c-.053-.154-.1-.3-.166-.441a5.168,5.168,0,0,0-.371-.682,4.912,4.912,0,0,0-.474-.606,1.448,1.448,0,0,0-.149-.171c-.216-.225-.418-.41-.62-.595-.668-.612-1.243-1.055-1.176-1.8.182-1.763,1.451-4.008,3.138-3.455,0,0,.508-2.091-.64-2.714-.873-.466.281-.525.657-.561.8-.087,2.694-.312,2.832-.328a3.352,3.352,0,0,1,.71-.025,2.063,2.063,0,0,1,.225.034,2.172,2.172,0,0,1,1.21,1.168,13.046,13.046,0,0,1,1.123,5.105A21.515,21.515,0,0,1,726.948,439.851Z" transform="translate(-539.314 -310.194)" fill="#ea4a8e"/>
    <path id="Path_306" data-name="Path 306" d="M513.707,109.211a2.266,2.266,0,0,0-1.883-.763,5.248,5.248,0,0,0-2.136.253.77.77,0,0,0,.407,1.485,5.787,5.787,0,0,1,1.617-.079c.542.059,1.03.342,1.566.157a.724.724,0,0,0,.429-1.053Z" transform="translate(-389.156 -81.504)" fill="#ea4a8e"/>
    <path id="Path_307" data-name="Path 307" d="M514.882,165.21a9.087,9.087,0,0,1-6.472,4.727l.1-3.576c-.163-2.868,6.256-4.19,6.256-4.19Z" transform="translate(-388.644 -120.163)" fill="#e0855c"/>
    <path id="Path_308" data-name="Path 308" d="M488.427,125.733s-2.767-10.727,5.024-11.482c10.708-1.036,11.654,7.578,8.982,11.558C499.985,129.46,488.48,130.156,488.427,125.733Z" transform="translate(-373.926 -85.631)" fill="#3b2645"/>
    <path id="Path_309" data-name="Path 309" d="M502.859,130.724c-.264-1.785-1.431-1.038-2.1-.441a10.034,10.034,0,0,0-.935-4.109c-1.721-3.087-8.445-3.329-11.089,1.182-.6,1.027-.646,2.854-.528,4.982.359,6.455,3.671,8.53,5.773,8.344a7.075,7.075,0,0,0,6.593-5.653C501.453,134.288,503.14,132.61,502.859,130.724Z" transform="translate(-374.072 -92.637)" fill="#f5a784"/>
    <path id="Path_310" data-name="Path 310" d="M497.662,150.525s-.539.258-.542-.733c0-.893.4-.808.4-.808s.387-.036.4.741S497.662,150.525,497.662,150.525Z" transform="translate(-380.522 -110.676)" fill="#3b2645"/>
    <path id="Path_311" data-name="Path 311" d="M516.442,149.335s-.539.255-.542-.735c0-.89.4-.806.4-.806s.387-.036.4.741S516.442,149.335,516.442,149.335Z" transform="translate(-394.031 -109.82)" fill="#3b2645"/>
    <path id="Path_312" data-name="Path 312" d="M506.427,153.407c-.281-.017-.915.208-1.075-.084a8.242,8.242,0,0,1,.23-2.038c.042-.261.1-.544.143-.8a.584.584,0,0,0-.081-.045.66.66,0,0,0-.185-.053c-.171,1.05-.264,2.139-.424,3.132a.14.14,0,0,0,.149.163c.413-.045.82,0,1.232-.025C506.548,153.649,506.568,153.418,506.427,153.407Z" transform="translate(-386.215 -111.689)" fill="#e0855c"/>
    <path id="Path_313" data-name="Path 313" d="M496.656,143.394c-.415-.168-1.165-.154-1.4.281a.126.126,0,0,0,.123.177c.2-.028.362-.14.561-.174a1.6,1.6,0,0,1,.631.042.174.174,0,0,0,.087-.326Z" transform="translate(-379.172 -106.585)" fill="#3b2645"/>
    <path id="Path_314" data-name="Path 314" d="M515.662,143.064c-.281-.545-1.269-.511-1.659-.123a.16.16,0,0,0,.1.255,3.518,3.518,0,0,0,.761-.059,2.551,2.551,0,0,1,.626.138.16.16,0,0,0,.177-.211Z" transform="translate(-392.643 -106.123)" fill="#3b2645"/>
    <path id="Path_315" data-name="Path 315" d="M507.092,166.256a2.681,2.681,0,0,1-1.1.536c-.357.045-.758-.09-1.083.062a.1.1,0,0,0-.045.143c.295.362.974.337,1.4.264a1.5,1.5,0,0,0,1.165-.733.222.222,0,0,0-.337-.272Z" transform="translate(-386.08 -123.067)" fill="#e0855c"/>
    <path id="Path_316" data-name="Path 316" d="M485.66,119.581c1.19,1.2.348,3.087-.219,4.387-.048.112-.14.247-.258.213-.1-.418-.126-.856-.241-1.274a1.546,1.546,0,0,0-.738-1.022,9.669,9.669,0,0,0-1.737-.281c-1.353-.351-1.387-2.167-2.6-2.563-1.316-.429-2.922.777-3.7,1.684a11.837,11.837,0,0,1-2.821,2.953,6.418,6.418,0,0,1-2.683.654,6.027,6.027,0,0,1-2.6-.253c-.7-.281-2.08-1.364-1.288-1.931.379-.281,1.356-.216,1.816-.317a6.217,6.217,0,0,0,1.611-.536c1.311-.682,1.642-1.8,2.526-2.857a7.059,7.059,0,0,1,3.267-2.13,6.933,6.933,0,0,1,3.879.014,16,16,0,0,1,3.915,2A11.785,11.785,0,0,1,485.66,119.581Z" transform="translate(-358.521 -86.979)" fill="#3b2645"/>
    <path id="Path_317" data-name="Path 317" d="M739.3,439.85a13.118,13.118,0,0,1-.587,1.8.777.777,0,0,0-.042.1,11.7,11.7,0,0,1-.926,1.527,2.108,2.108,0,0,1-1.659.789.966.966,0,0,1-.121,0,2.686,2.686,0,0,1-.923-.337c5.08-4.21,3.472-11.788,1.883-17.374a2.064,2.064,0,0,1,.225.034,2.172,2.172,0,0,1,1.21,1.168,13.046,13.046,0,0,1,1.123,5.105A21.566,21.566,0,0,1,739.3,439.85Z" transform="translate(-551.664 -310.194)" fill="#df3c7c"/>
    <path id="Path_318" data-name="Path 318" d="M727.987,453.5a7.067,7.067,0,0,0-1.934,1.285,10.536,10.536,0,0,0-.752.893,4.208,4.208,0,0,0-.441-.561c.216-.281.449-.516.561-.665a3.683,3.683,0,0,1,2.394-1.535.317.317,0,0,1,.171.584Z" transform="translate(-544.342 -329.307)" fill="#df3c7c"/>
    <path id="Path_319" data-name="Path 319" d="M730.718,459.534c-.07.362-.348.449-.64.62a7.337,7.337,0,0,0-1.072.727,10.537,10.537,0,0,0-.89.96,2.919,2.919,0,0,0-.121-.5c-.053-.154-.1-.3-.166-.441a7.01,7.01,0,0,1,.685-.657c.457-.4,1.465-1.358,2.091-.977A.258.258,0,0,1,730.718,459.534Z" transform="translate(-546.478 -333.808)" fill="#df3c7c"/>
    <path id="Path_320" data-name="Path 320" d="M426.814,563.317a2.242,2.242,0,0,1-1.053,1.763,6.9,6.9,0,0,1-1.965.794c-2.723.8-5.142,2.1-8,2.576-1.709.281-5.226.733-5.762-1.608a.647.647,0,0,0-.017-.121,2.672,2.672,0,0,1,.182-1.271.387.387,0,0,1,.051.1c1.322,4.174,8.813,1.367,11.474.328a43.916,43.916,0,0,0,5.089-2.644A.3.3,0,0,1,426.814,563.317Z" transform="translate(-317.856 -408.656)" fill="#df3c7c"/>
    <path id="Path_321" data-name="Path 321" d="M430.656,562.044a11.041,11.041,0,0,1-2.2-1.078c-.379-.191-.761-.365-1.123-.561a3.913,3.913,0,0,0,.561-.281,1.64,1.64,0,0,0,.146-.1c.216.087.424.182.64.281a7.718,7.718,0,0,1,2.273,1.271.295.295,0,0,1-.295.471Z" transform="translate(-330.321 -406.346)" fill="#df3c7c"/>
    <path id="Path_322" data-name="Path 322" d="M435.841,557.226a6.248,6.248,0,0,1-2.324-1.061c-.312-.166-.693-.312-1.047-.494a.546.546,0,0,0,.07-.067,4.528,4.528,0,0,0,.545-.744c.281.121.544.267.786.379a4.9,4.9,0,0,1,2.271,1.462.351.351,0,0,1-.3.525Z" transform="translate(-334.018 -402.635)" fill="#df3c7c"/>
    <path id="Path_323" data-name="Path 323" d="M517.849,355a31.581,31.581,0,0,1-3.682,3.292,20.177,20.177,0,0,0-2.187-2.748Z" transform="translate(-391.212 -258.87)" fill="#836c80"/>
    <path id="Path_324" data-name="Path 324" d="M563.788,307.251c-.449.028-.9.07-1.33.14-.873-6.68-1.937-12.874-6.273-18.578-.182-.241.191-.449.382-.281C561.577,292.5,563.348,300.487,563.788,307.251Z" transform="translate(-422.974 -211.015)" fill="#836c80"/>
    <path id="Path_325" data-name="Path 325" d="M623.8,313.523a9.449,9.449,0,0,0-3.91-1.092,2.63,2.63,0,0,0-1.85.188,1.1,1.1,0,0,0-.452,1.384c.474.766,1.479.775,2.276,1a7.8,7.8,0,0,1,2.585.842C623.8,316.863,625.2,314.531,623.8,313.523Z" transform="translate(-467.095 -228.194)" fill="#836c80"/>
    <path id="Path_326" data-name="Path 326" d="M384.087,293.068a1.128,1.128,0,0,0-2.156,0c-.194.867-.174,1.754-.281,2.633a11.186,11.186,0,0,0-.34,2.7,1.329,1.329,0,0,0,2.453.662,6.082,6.082,0,0,0,.6-2.972A8.333,8.333,0,0,0,384.087,293.068Z" transform="translate(-297.201 -213.747)" fill="#836c80"/>
    <path id="Path_327" data-name="Path 327" d="M505.114,221c-8.294,4.71-18.359,2.835-18.359,2.835a6.3,6.3,0,0,1-.71-1.7c-.362-1.269-.758-2.526-1.156-3.783-.8-2.526-.907-5.226-2.723-7.354a13.147,13.147,0,0,1-1.235-1.4c-.923-1.375-.828-3.163-.561-4.814l2.7-7.612c.225-.07,1.069-.345,1.243-.407.716-.225,1.451-.424,2.091-.578-.581,2.661-1.246,8.42,2.358,8.589,4.112.191,6.419-5.936,7.093-10,.407-.042.926-.084,1.547-.138a.25.25,0,0,1,.112,0c.14-.017.281-.025.415-.034l.814-.053a27.177,27.177,0,0,0,.138,6.868c.452,2.678,1.513,5.229,3.817,6.282.062,1.479.157,2.947.281,4.423.017.216.025.424.042.64a8.285,8.285,0,0,0,.157.907C503.556,215.819,504.653,221,505.114,221Z" transform="translate(-368.341 -143.454)" fill="#ea4a8e"/>
    <path id="Path_328" data-name="Path 328" d="M550.967,231.252c-4.839-3.455-4.286-11.811-4.286-12.232.449,2.661,1.513,5.209,3.817,6.262.062,1.479.157,2.947.281,4.423.017.216.025.424.042.64C550.829,230.449,550.883,230.777,550.967,231.252Z" transform="translate(-416.159 -161.056)" fill="#df3c7c"/>
    <path id="Path_329" data-name="Path 329" d="M373.1,216.963c-8.7-.494-17.551-.138-26.251.017a.185.185,0,1,0,0,.37c8.7.154,17.562.511,26.251.017a.2.2,0,1,0,0-.4Z" transform="translate(-272.293 -159.395)" fill="#e8cfe5"/>
    <path id="Path_330" data-name="Path 330" d="M408.163,228.877a72.4,72.4,0,0,0-10.809.126.1.1,0,1,0,0,.208,72.769,72.769,0,0,0,10.809.126.23.23,0,1,0,0-.46Z" transform="translate(-308.683 -168.028)" fill="#e8cfe5"/>
    <path id="Path_331" data-name="Path 331" d="M659.525,377.148c-4.642-.312-9.358-.109-14.008-.093s-9.346-.036-14.006.247a.149.149,0,0,0,0,.295c4.659.281,9.338.227,14.006.247s9.366.219,14.008-.1a.3.3,0,0,0,0-.6Z" transform="translate(-477.101 -274.678)" fill="#e8cfe5"/>
    <path id="Path_332" data-name="Path 332" d="M526.7,479.6c-5.2-.3-10.472-.079-15.681-.056-4.957.025-9.947-.1-14.893.233-.163,0-.138.281.02.281,5.052.342,10.172.213,15.243.239s10.2.239,15.266-.048C527.056,480.229,527.129,479.628,526.7,479.6Z" transform="translate(-379.728 -348.383)" fill="#e8cfe5"/>
    <path id="Path_333" data-name="Path 333" d="M584.87,74.623c-7.3-.337-14.643-.146-21.949-.14s-14.682-.365-21.949.149a.211.211,0,0,0,0,.418c7.267.514,14.668.143,21.949.149s14.648.194,21.949-.143a.216.216,0,1,0,0-.432Z" transform="translate(-411.933 -56.997)" fill="#e8cfe5"/>
    <path id="Path_334" data-name="Path 334" d="M634.534,88.031a28.425,28.425,0,0,0-10.52.421c-.25.051-.2.486.062.452a82.836,82.836,0,0,1,10.385-.4C634.731,88.5,634.807,88.073,634.534,88.031Z" transform="translate(-471.685 -66.602)" fill="#e8cfe5"/>
  </g>
</svg>
