<svg xmlns="http://www.w3.org/2000/svg" width="40.605" height="41.591" viewBox="0 0 40.605 41.591">
  <g id="treadmill-gym-svgrepo-com" transform="translate(-6.065 0.001)">
    <g id="Group_5" data-name="Group 5" transform="translate(6.065 8.792)">
      <g id="Group_4" data-name="Group 4" transform="translate(0)">
        <path id="Path_242" data-name="Path 242" d="M44.283,122.277a10.214,10.214,0,0,0-5.533-2.541l-2.177-.316c-3.816-.555-8.894-1.294-13.318-1.83l-2.261-4.8h3.658a.829.829,0,0,0,.828-.828,3.734,3.734,0,0,0-3.73-3.73h-6.4a.828.828,0,0,0-.828.828,3.734,3.734,0,0,0,3.73,3.73h.913l2.155,4.57c-1.65-.184-3.154-.327-4.393-.405a9.788,9.788,0,0,0-7.365,2.714,11.114,11.114,0,0,0,0,16.183,10.536,10.536,0,0,0,1.336,1.065l-2.7,2.7a.828.828,0,0,0,1.172,1.172l3.035-3.035a9.581,9.581,0,0,0,3.907.833q.306,0,.613-.019c4.386-.278,12.2-1.4,17.912-2.22l2.384-.341L42,140.792a.828.828,0,1,0,1.172-1.172l-3.91-3.91a9.969,9.969,0,0,0,5.021-2.449,7.513,7.513,0,0,0,0-10.984ZM18.25,111.137a2.076,2.076,0,0,1-1.9-1.244h5.4a2.076,2.076,0,0,1,1.9,1.244Zm20.269,23.017c-1.109.153-2.473.349-3.918.557-5.681.816-13.461,1.933-17.781,2.207a8.145,8.145,0,0,1-6.126-2.269,9.457,9.457,0,0,1,0-13.767,8.18,8.18,0,0,1,5.621-2.285c.168,0,.337.005.505.016,4.786.3,13.65,1.593,19.515,2.447l2.179.316c3.235.466,6.5,2.622,6.5,6.389C45.013,131.558,41.752,133.707,38.519,134.154Z" transform="translate(-6.065 -108.236)" fill="#5f4591"/>
      </g>
    </g>
    <g id="Group_7" data-name="Group 7" transform="translate(10.373 21.602)">
      <g id="Group_6" data-name="Group 6" transform="translate(0)">
        <path id="Path_243" data-name="Path 243" d="M65.819,265.934a6.719,6.719,0,1,0,6.719,6.719A6.727,6.727,0,0,0,65.819,265.934Zm0,11.781a5.062,5.062,0,1,1,5.062-5.062A5.068,5.068,0,0,1,65.819,277.715Z" transform="translate(-59.1 -265.934)" fill="#5f4591"/>
      </g>
    </g>
    <g id="Group_9" data-name="Group 9" transform="translate(38.773 17.232)">
      <g id="Group_8" data-name="Group 8">
        <path id="Path_244" data-name="Path 244" d="M410.478,213.26l-.127-.5a.828.828,0,1,0-1.605.411l.127.5a.828.828,0,1,0,1.605-.411Z" transform="translate(-408.719 -212.139)" fill="#5f4591"/>
      </g>
    </g>
    <g id="Group_11" data-name="Group 11" transform="translate(33.935 -0.001)">
      <g id="Group_10" data-name="Group 10" transform="translate(0 0)">
        <path id="Path_245" data-name="Path 245" d="M359.13,3.775,358.251,1.4a2.147,2.147,0,0,0-4.027,1.492l.119.321-3.735,1.3a2.145,2.145,0,0,0,.969,4.158l1.818,7.108A.829.829,0,1,0,355,15.37l-1.841-7.2,4.664-1.626a2.148,2.148,0,0,0,1.307-2.774Zm-1.57.955a.492.492,0,0,1-.282.254l-5.8,2.022a.49.49,0,1,1-.323-.926l4.533-1.58a.829.829,0,0,0,.5-1.07l-.412-1.113a.49.49,0,0,1,.92-.341l.879,2.374A.493.493,0,0,1,357.56,4.73Z" transform="translate(-349.166 0.001)" fill="#5f4591"/>
      </g>
    </g>
    <g id="Group_13" data-name="Group 13" transform="translate(30.946 26.287)">
      <g id="Group_12" data-name="Group 12">
        <path id="Path_246" data-name="Path 246" d="M319.263,327.532h-1.811l-3.67-3.67a.829.829,0,0,0-1.172,1.172l2.5,2.5h-.154a.828.828,0,0,0,0,1.657h4.308a.828.828,0,0,0,0-1.657Z" transform="translate(-312.368 -323.62)" fill="#5f4591"/>
      </g>
    </g>
  </g>
</svg>
