<svg xmlns="http://www.w3.org/2000/svg" width="261.641" height="160.736" viewBox="0 0 261.641 160.736">
  <g id="persontal_traing" data-name="persontal traing" transform="translate(-1.161 -3.73)">
    <path id="Path_335" data-name="Path 335" d="M378.708,588.677c-2.07.207-4.14.354-6.239.433a.4.4,0,0,1-.115,0c-.589,0-1.195.045-1.8.068-1.66-.023-139.248,0-139.248,0a2.2,2.2,0,0,1-.384-.023l-.388-.034c-9.734,0-31.306.057-31.306.057a2.223,2.223,0,0,1-.388-.023l-.427-.034-34.528.057a2.2,2.2,0,0,1-.384-.023l-.465-.034c-.772-.045-1.541-.1-2.3-.181a1.624,1.624,0,1,1,0-3.238c.785-.079,1.566-.136,2.351-.192l.427-.038a1.917,1.917,0,0,0,.358-.023s23.322.045,34.567.06l.427-.038a1.986,1.986,0,0,0,.363-.023s21.171.045,31.345.06l.375-.038a1.917,1.917,0,0,0,.358-.023s140.485.083,141.087.094a.478.478,0,0,1,.128,0c2.1.09,4.157.226,6.213.43a1.362,1.362,0,1,1-.026,2.7Z" transform="translate(-157.826 -424.711)" fill="#c7c6c6"/>
    <path id="Path_336" data-name="Path 336" d="M243.581,4.085c-16.836,2.617-32.465,9.408-35.11,18.4-2.835,9.627,9.193,18.506,15.476,27.684,4.683,6.859,6.218,14.189,4.485,21.408-1.825,7.532-7.151,14.7-11.372,21.967s-7.4,14.958-4.76,22.424,12.276,14.686,26.4,16.751c9.822,1.437,20.48.274,30.381,1.558,15.826,2.043,27.123,9.911,43.081,11.661a56.629,56.629,0,0,0,24.548-2.634c8.383-3.08,13.271-8.052,20.178-11.992,8.96-5.115,21.072-8.375,32.264-12.137s22.151-8.469,26.515-14.993c5.818-8.7-1.444-18.186-1.058-27.38s8.495-17.857,16.661-26.068S448.027,34.1,449.54,24.9,443.547,5.4,427.261,1.624c-11-2.552-23.844-1.73-35.4.047s-22.638,4.457-34.5,5.572c-20.427,1.917-40.082-1.04-59.684-3.617A203.206,203.206,0,0,0,243.581,4.085Z" transform="translate(-186.928 3.722)" fill="#f6f6f6"/>
    <path id="Path_337" data-name="Path 337" d="M419.161,115.6a4.731,4.731,0,0,0,1.257-1.336,5.044,5.044,0,0,1,2.393-1.6,3.044,3.044,0,0,1,1.32-.145,10.88,10.88,0,0,1,1.936.742c1.733.605,3.614-.145,5.449-.241a7.647,7.647,0,0,1,5.008,1.552c.961.739,1.793,1.985,1.328,3.1a2.718,2.718,0,0,1-.821,1,7.088,7.088,0,0,1-2.21,1.279,10.166,10.166,0,0,0-2.138.821,10.844,10.844,0,0,0-1.47,1.413,7.283,7.283,0,0,1-4.252,1.917,11.187,11.187,0,0,1-4.687-.548,4.463,4.463,0,0,1-1.687-.86c-.7-.632-1.1-1.481-1.865-2.053-.687-.5-1.58-.868-2.021-1.643a1.914,1.914,0,0,1,.1-1.958C417.387,116.026,418.224,116.1,419.161,115.6Z" transform="translate(-330.097 -81.695)" fill="#ab8ea9"/>
    <path id="Path_338" data-name="Path 338" d="M440.94,71.615c.159-.367.32-.734.5-1.1a5.618,5.618,0,0,0-.465-5.443,6.8,6.8,0,0,0-3.075-2.053c-1.6-.624-3.458-1.016-5-.255a1.553,1.553,0,0,1-.416.164,1.676,1.676,0,0,1-.589-.082,3.377,3.377,0,0,0-3.209,1.336,7.392,7.392,0,0,0-1.52,3.286,5.405,5.405,0,0,0,.238,2.138,9.933,9.933,0,0,0,.523,1.886c.517,1,1.974,1.489,3.012,1.7a25.483,25.483,0,0,1,3.173.624c1.479.49,2.155,1.6,2.891,2.856.649,1.1,1.065,3.061,2.245,3.724a2.67,2.67,0,0,0,2.01.126c.9-.249,1.821-.961,1.741-1.889s-1.131-1.479-2.032-1.815l-1.692-.608a.331.331,0,0,1-.159-.093c-.088-.107-.027-.274.036-.389C439.859,74.366,440.354,72.989,440.94,71.615Z" transform="translate(-337.844 -45.28)" fill="#3b2645"/>
    <path id="Path_339" data-name="Path 339" d="M425.488,89.657a1.357,1.357,0,0,0-2.19-.11c-1.164,1.259.575,3.861,1.99,4.041A29.852,29.852,0,0,0,425.488,89.657Z" transform="translate(-334.776 -64.645)" fill="#e0855c"/>
    <path id="Path_340" data-name="Path 340" d="M428.186,120.994a73.308,73.308,0,0,0-4.575,12.047c-.1.4-.194.775-.274,1.144-.548,2.552-2.426,14.886-2.719,16.83l-.038.252c-10.026,2.229-20.146-1-20.146-1s0-.192-.027-.548c-.112-2.445-.578-12.556-.731-21.279-.077-4.452-.071-8.548.1-11.086.063-.931,2.218-.723,3.721-.854a44.237,44.237,0,0,1,5.41-.112,2.414,2.414,0,0,1,.246,0l.3.016.205-1.446c0-.016.14-.958.14-.958l.375-2.6c.164.041.329.085.49.11a7.115,7.115,0,0,0,.953.145,8.764,8.764,0,0,0,1.18.044,3.258,3.258,0,0,0,.548-.03c.257-.022.507-.049.75-.088a11.263,11.263,0,0,0,1.169-.257,2.758,2.758,0,0,0,.334-.1.273.273,0,0,0,.093-.027l.26-.088a9.1,9.1,0,0,0,1.394-.608c.246-.129.46-.249.63-.356l.109-.068c.1-.06.172-.11.233-.156a1.065,1.065,0,0,0,.153-.107c-.041.181-.06.255-.074.334-.145.821-.318,1.878-.419,2.93-.085.723-.145,1.44-.2,2.064-.085,1.079-.123,1.862-.123,1.862a6.631,6.631,0,0,1,.706.068.14.14,0,0,1,.082,0,23.276,23.276,0,0,1,3.039.507,20.844,20.844,0,0,1,6.508,2.738.548.548,0,0,1,.192.671Z" transform="translate(-317.864 -79.754)" fill="#f5a784"/>
    <path id="Path_341" data-name="Path 341" d="M445.484,109.75c-1.558,5.709-7.349,5.024-8.674,4.192l.375-2.6A10.19,10.19,0,0,0,445.484,109.75Z" transform="translate(-344.866 -79.703)" fill="#e0855c"/>
    <path id="Path_342" data-name="Path 342" d="M430.882,73.94c-.764.72-.909,2.412-1.062,4.282-.465,5.662,1.147,7.518,4.028,7.976s5.969-.509,6.845-5.736c.444-2.615.9-5.03,0-6.212C439.356,72.483,433.226,71.733,430.882,73.94Z" transform="translate(-339.731 -52.709)" fill="#f5a784"/>
    <path id="Path_343" data-name="Path 343" d="M466.916,94.817s1-2.305,2.341-.991-.772,4.767-2.9,4.408C466.357,98.234,466.193,95.586,466.916,94.817Z" transform="translate(-366.311 -67.845)" fill="#f5a784"/>
    <path id="Path_344" data-name="Path 344" d="M470.3,98.683a1.993,1.993,0,0,0-.879.512,2.393,2.393,0,0,0-.663.764c-.041.093.088.159.156.1.189-.159.345-.356.523-.528a1.1,1.1,0,0,0,.394.345c.126.052.23-.1.178-.211a1.01,1.01,0,0,0-.323-.342,4.9,4.9,0,0,0,.7-.471.1.1,0,0,0-.088-.17Z" transform="translate(-368.061 -71.664)" fill="#e0855c"/>
    <path id="Path_345" data-name="Path 345" d="M438.093,89.522s-.5.159-.381-.706c.1-.778.449-.654.449-.654s.34,0,.255.7S438.093,89.522,438.093,89.522Z" transform="translate(-345.508 -64.02)" fill="#3b2645"/>
    <path id="Path_346" data-name="Path 346" d="M456.243,90.422s-.5.159-.381-.706c.1-.778.449-.654.449-.654s.342,0,.255.7S456.243,90.422,456.243,90.422Z" transform="translate(-358.688 -64.673)" fill="#3b2645"/>
    <path id="Path_347" data-name="Path 347" d="M443.6,90.545c-.246-.049-.821.071-.928-.2a7.424,7.424,0,0,1,.446-1.752,22.341,22.341,0,0,0,.69-2.316c0-.041-.066-.068-.088-.027a27.533,27.533,0,0,0-1.35,4.227.126.126,0,0,0,.109.162c.364,0,.715.107,1.079.126C443.675,90.769,443.721,90.569,443.6,90.545Z" transform="translate(-348.897 -62.62)" fill="#e0855c"/>
    <path id="Path_348" data-name="Path 348" d="M438.178,83.176c-.342-.2-1-.274-1.27.074a.112.112,0,0,0,.088.17c.175,0,.331-.079.509-.085a1.424,1.424,0,0,1,.548.112A.151.151,0,0,0,438.178,83.176Z" transform="translate(-344.925 -60.283)" fill="#3b2645"/>
    <path id="Path_349" data-name="Path 349" d="M456.478,84.865c-.175-.509-1.043-.6-1.429-.309a.14.14,0,0,0,.049.235,3.2,3.2,0,0,0,.671.041,2.268,2.268,0,0,1,.529.194.14.14,0,0,0,.181-.162Z" transform="translate(-358.078 -61.287)" fill="#3b2645"/>
    <path id="Path_350" data-name="Path 350" d="M442.05,107.191a5.329,5.329,0,0,0,3.132-.381,2.6,2.6,0,0,1-1.626,1.369C442.45,108.412,442.05,107.191,442.05,107.191Z" transform="translate(-348.671 -77.568)" fill="#fff"/>
    <path id="Path_351" data-name="Path 351" d="M291.776,288.337c-3.069,5.3-4.945,11.144-7.261,16.77a75.12,75.12,0,0,1-8.641,15.059c-2,2.815-5.588,6.661-5.358,10.366a.371.371,0,0,0,0,.093,18.464,18.464,0,0,1,.183,4.036c-.4,2.5-2.511,1.583-4.359,1.591l-5.777.025c-2.549,0-5.859.569-8.345-.041-1.27-.3.274-1.75.72-1.955,1.865-.876,3.833-1.495,5.72-2.336a12.712,12.712,0,0,0,4.655-3.244,4.065,4.065,0,0,0,.3-.361c1.917-2.552,6.059-14.528,8.236-20.74.405-1.172.753-2.138,1-2.806,5.873-15.91,10.579-32.275,16.2-48.363,1-2.839,3.913-12.389,6.024-14.533,3-3.031,5.75,3.746,8.814,6.733a6.741,6.741,0,0,1,1.733,3.22C309,264.917,297.857,277.824,291.776,288.337Z" transform="translate(-210.457 -175.114)" fill="#f5a784"/>
    <path id="Path_352" data-name="Path 352" d="M462.688,341.329a1.243,1.243,0,0,1-.786.222c-4.589.167-9.1,0-13.668,0a3.236,3.236,0,0,1-2.516-1.046,3.291,3.291,0,0,1-.389-1.594c-.057-.851-.14-1.667-.255-2.464a38.118,38.118,0,0,0-1.917-7.461,78.612,78.612,0,0,1-4.211-17.523c-.676-6.3-.857-12.66-2.368-18.832-1.2-4.912-3.1-10.432-4.49-16.069-1.936-7.954-2.861-16.132.643-23.122.2-.405.411-.821.643-1.2a5.622,5.622,0,0,1,7.965-2.371c2.111,1.049,3.307,3.318,4.107,5.539a40.835,40.835,0,0,1,1.667,6.251c.964,5.125,1.188,10.514,1.643,15.565.652,7.527.728,15.021,1.032,22.564.274,6.511.843,26.046.966,29.3a17.906,17.906,0,0,0,.652,5.364,4.653,4.653,0,0,0,1.484,2.147,7.913,7.913,0,0,0,2.626,1.1c2.048.548,3.888,1.435,5.966,1.971a2.415,2.415,0,0,1,1.139.528A.844.844,0,0,1,462.688,341.329Z" transform="translate(-340.188 -180.886)" fill="#f5a784"/>
    <path id="Path_353" data-name="Path 353" d="M315.593,83.5c-2.368-1.766-8,.041-10.295.745-3.354,1.027-6.7,2.308-10.2,2.42a2.382,2.382,0,0,1-1.076-.145,2.628,2.628,0,0,1-.958-.934c-3.042-4.219-7.491-8.978-8.271-14.3a6.046,6.046,0,0,1,.189-2.634c.12-.386.246-.778.359-1.169a6.181,6.181,0,0,0,.274-1.834,2.6,2.6,0,0,0-1.517-2.464c-2.053-.706-5.01,1.1-4.843,3.239q.06.756.156,1.5c.1.821.241,1.643.392,2.437.422,2.19.988,4.337,1.558,6.44.86,3.206,1.761,6.407,2.858,9.545.986,2.754,2.82,6.467,5.3,8.159a11.728,11.728,0,0,0,6,1.572,64.383,64.383,0,0,0,14.955-.841,9.838,9.838,0,0,0,3.737-1.229c1.624-1.057,1.5-2.242,1.848-3.866.433-2.023,1.287-3.633.3-5.706a2.51,2.51,0,0,0-.772-.939ZM283.9,70.489a.09.09,0,0,1,0-.082A.6.6,0,0,1,283.9,70.489Z" transform="translate(-230.441 -45.775)" fill="#f5a784"/>
    <path id="Path_354" data-name="Path 354" d="M285.252,83.1a12.3,12.3,0,0,0-4.98-.928c-.151-.8-.288-1.624-.392-2.437L285.8,79.3c-.112.392-.238.783-.359,1.169A6.046,6.046,0,0,0,285.252,83.1Z" transform="translate(-230.902 -57.59)" fill="#e0855c"/>
    <path id="Path_355" data-name="Path 355" d="M269.895,63.781l-10.355.928a2.388,2.388,0,1,0-4.756.427l.274,3.077a2.388,2.388,0,0,0,4.756-.427l10.355-.928a2.388,2.388,0,1,0,4.756-.427l-.274-3.077a2.387,2.387,0,1,0-4.756.427Z" transform="translate(-212.671 -44.431)" fill="#3b2645"/>
    <path id="Path_356" data-name="Path 356" d="M283.424,69.112a1.676,1.676,0,0,0,.739,1.369,1.98,1.98,0,0,0,.8.151,3.985,3.985,0,0,0,1.782-.181,2.442,2.442,0,0,0,1.328-1.695,4.244,4.244,0,0,0-.14-2.19,2.368,2.368,0,0,0-.742-1.238,2.275,2.275,0,0,0-.789-.35,5.429,5.429,0,0,0-3.272.153c-.884.326-1.314.862-.684,1.555A3.237,3.237,0,0,1,283.424,69.112Z" transform="translate(-232.549 -47.057)" fill="#f5a784"/>
    <path id="Path_357" data-name="Path 357" d="M458.26,84.43c-.986,2.073-.131,3.683.3,5.706.348,1.624.227,2.809,1.848,3.866a9.792,9.792,0,0,0,3.737,1.229,64.383,64.383,0,0,0,14.955.841,11.745,11.745,0,0,0,6.007-1.572c2.481-1.7,4.321-5.41,5.287-8.17,1.1-3.138,2-6.338,2.858-9.547.57-2.1,1.136-4.258,1.558-6.437.151-.8.274-1.624.392-2.437q.1-.747.156-1.5c.167-2.144-2.79-3.945-4.841-3.239A2.59,2.59,0,0,0,489,65.631a6.176,6.176,0,0,0,.274,1.834c.115.392.238.783.359,1.169a6.045,6.045,0,0,1,.189,2.634c-.78,5.32-5.229,10.076-8.266,14.3a2.6,2.6,0,0,1-.956.934,2.4,2.4,0,0,1-1.079.145c-3.5-.112-6.845-1.394-10.2-2.42-2.3-.7-7.94-2.511-10.3-.745A2.478,2.478,0,0,0,458.26,84.43ZM490.741,70.4v.077A.069.069,0,0,1,490.741,70.4Z" transform="translate(-360.111 -45.761)" fill="#f5a784"/>
    <path id="Path_358" data-name="Path 358" d="M573.328,83.1a12.3,12.3,0,0,1,4.98-.928c.151-.8.274-1.624.392-2.437L572.78,79.3c.115.392.238.783.359,1.169A6.045,6.045,0,0,1,573.328,83.1Z" transform="translate(-443.608 -57.59)" fill="#e0855c"/>
    <path id="Path_359" data-name="Path 359" d="M550.887,63.777l10.352.928a2.389,2.389,0,1,1,4.759.427l-.274,3.077a2.389,2.389,0,1,1-4.759-.427l-10.352-.928a2.389,2.389,0,1,1-4.758-.427l.274-3.077a2.389,2.389,0,0,1,4.759.427Z" transform="translate(-424.047 -44.427)" fill="#3b2645"/>
    <path id="Path_360" data-name="Path 360" d="M574.92,69.112a1.711,1.711,0,0,1-.739,1.369,1.971,1.971,0,0,1-.8.151,3.985,3.985,0,0,1-1.782-.181,2.442,2.442,0,0,1-1.328-1.695,4.216,4.216,0,0,1,.142-2.19,2.365,2.365,0,0,1,.739-1.238,2.289,2.289,0,0,1,.791-.35,5.421,5.421,0,0,1,3.269.153c.884.326,1.314.862.684,1.555A3.258,3.258,0,0,0,574.92,69.112Z" transform="translate(-441.725 -47.057)" fill="#f5a784"/>
    <path id="Path_361" data-name="Path 361" d="M359.926,332.029a1.254,1.254,0,0,1-.312.331,3.284,3.284,0,0,1-.627.337,5.2,5.2,0,0,1-1.421.34,7.184,7.184,0,0,1-1.188.041c-1.881-.041-3.751,0-3.751,0-2.152-4.028-7.193-18.125-6.771-27.541s-5.347-25.923-5.347-25.923c-.016.049-.025.107-.049.164-1.265,4.26-13.61,28.549-15.814,33.576-.049.123-.1.23-.14.329-2.377,5.662-13.246,18.785-13.246,18.785-2.393.14-6.141-2.409-6.141-2.409s-.98-4.019.7-12.726,11.792-22.575,14.325-34.7,11.423-29.592,11.423-29.592a46.586,46.586,0,0,0,14.426.378c.134-.016.274-.033.389-.057.684-.093,1.32-.2,1.9-.307.225-.041.438-.082.635-.123a27.586,27.586,0,0,0,3.2-.821c5.142,7.278,6.379,19.987,6.379,24.338s1.823,31.04,1.823,36.1C360.323,317.348,361.665,329.447,359.926,332.029Z" transform="translate(-249.024 -183.085)" fill="#3b2645"/>
    <path id="Path_362" data-name="Path 362" d="M475.165,334.207a1.212,1.212,0,0,1-.312.331,3.281,3.281,0,0,1-.627.337c.548-12.981-1.941-25.907-2.971-38.854-.594-7.477-.134-15.029-.86-22.482-.66-6.793-3.318-12.627-6.875-18.306.225-.041.438-.082.635-.123a33.707,33.707,0,0,1,6.916,16.721c1.016,7.445.274,15.086.821,22.58.561,7.776,1.594,15.508,2.385,23.256C474.836,323.058,475.488,328.7,475.165,334.207Z" transform="translate(-364.262 -185.264)" fill="#e8cfe5"/>
    <path id="Path_363" data-name="Path 363" d="M393.011,352.59a.566.566,0,0,1-.016.148c-1.265,4.26-13.61,28.549-15.815,33.576,1.684-6.949,1.815-12.652,5.06-20.535C386.147,356.262,392.51,352.847,393.011,352.59Z" transform="translate(-301.562 -256.054)" fill="#291b30"/>
    <path id="Path_364" data-name="Path 364" d="M369.7,103.84s-1.04,11.694-4.441,17.249-21.9,3.45-21.9,3.45-4.019,15.012-2.122,19.084-6.429,4.712-9.068,4.594-16.729.192-16.622-2.434,2.1-3.559,1.889-7.253-.312-14.016-.312-14.016-11.9,2.724-19.388,1.049S287.056,110.1,287.02,105.617l4.687-1.782s6.1,8.351,7.5,9.687,14.541-2.557,18.049-2.464,10.432.173,10.432.173.5,4.359,3.31,3.929,4.885-3.324,4.885-3.324a15.607,15.607,0,0,1,6.645-.216c.123.025.246.049.378.082,1.569.348,3.847,1.035,6.076,1.618,2.954.772,5.777,1.369,6.7.821,1.681-.988,9.44-11.42,9.44-11.42Z" transform="translate(-236.088 -74.598)" fill="#ab8ea9"/>
    <path id="Path_365" data-name="Path 365" d="M431.875,156.143c-1.52-.17-1.268,3.165-1.257,3.954a8.546,8.546,0,0,1-.241,2.826,26.383,26.383,0,0,1-1.2,2.352,3.355,3.355,0,0,0-.23,2.8.194.194,0,0,0,.375-.1c-.337-2.231,1.355-3.584,1.755-5.6.219-1.1-.5-5.435.846-5.857a.192.192,0,0,0-.049-.372Z" transform="translate(-339.002 -113.389)" fill="#3b2645"/>
    <path id="Path_366" data-name="Path 366" d="M443.97,156.634c-.934,1.207-.783,2.511-.589,3.943a8.488,8.488,0,0,1-.323,4.028,5.278,5.278,0,0,0-.356,2.489.137.137,0,1,0,.274,0c.189-1.465.953-2.779,1.1-4.238.224-2.1-.893-4.006.208-6.037a.181.181,0,0,0-.309-.183Z" transform="translate(-349.12 -113.697)" fill="#3b2645"/>
    <path id="Path_367" data-name="Path 367" d="M361.56,168.239s8.95-4.69,10-6.908-.3,5.982-.3,5.982Z" transform="translate(-290.219 -116.885)" fill="#836c80"/>
    <path id="Path_368" data-name="Path 368" d="M464.892,135.56c1.569.348,3.847,1.032,6.076,1.618a6.966,6.966,0,0,0-6.453,1.84c-2.62,2.7-8.874,1.949-9.514,1.865C459.249,141.337,464.06,136.444,464.892,135.56Z" transform="translate(-358.075 -98.446)" fill="#836c80"/>
    <path id="Path_369" data-name="Path 369" d="M270.679,566.727c-.4,2.5-2.511,1.583-4.359,1.591l-5.777.025c-2.549,0-5.859.569-8.345-.041-1.27-.3.274-1.75.72-1.955,1.865-.876,3.833-1.495,5.72-2.336a12.71,12.71,0,0,0,4.655-3.245,2.63,2.63,0,0,1,.274-.057,2.585,2.585,0,0,1,2.856,2.1c1.065.9,2.738-.208,4.085-.115A18.8,18.8,0,0,1,270.679,566.727Z" transform="translate(-210.443 -407.176)" fill="#3b2645"/>
    <path id="Path_370" data-name="Path 370" d="M501.693,567.794a1.243,1.243,0,0,1-.786.222c-4.589.167-9.1,0-13.668,0a3.236,3.236,0,0,1-2.516-1.046,3.291,3.291,0,0,1-.389-1.594c-.058-.851-.14-1.667-.255-2.464,1.369-.3,3.22,1.038,4.367.074a2.615,2.615,0,0,1,1.955-2.056,4.655,4.655,0,0,0,1.484,2.147,7.915,7.915,0,0,0,2.626,1.1c2.048.548,3.888,1.435,5.966,1.971a2.414,2.414,0,0,1,1.139.528A.806.806,0,0,1,501.693,567.794Z" transform="translate(-379.193 -407.351)" fill="#3b2645"/>
  </g>
</svg>
