<svg xmlns="http://www.w3.org/2000/svg" width="44.789" height="35.829" viewBox="0 0 44.789 35.829">
  <g id="lotus-flower-svgrepo-com" transform="translate(-0.002 -51.209)">
    <g id="Group_3" data-name="Group 3" transform="translate(0.002 51.209)">
      <path id="Path_241" data-name="Path 241" d="M44.787,64.577a2.246,2.246,0,0,0-2.168-2.168l-.311,0a29.118,29.118,0,0,0-5.22.554,27.986,27.986,0,0,0-1.421-5.934,2.24,2.24,0,0,0-2.989-1.238,26.994,26.994,0,0,0-4.23,2.476A30.331,30.331,0,0,0,24.015,51.9a2.24,2.24,0,0,0-3.236,0,30.348,30.348,0,0,0-4.437,6.37,27.667,27.667,0,0,0-4.226-2.483,2.239,2.239,0,0,0-2.989,1.238,28.041,28.041,0,0,0-1.42,5.934,29.042,29.042,0,0,0-5.221-.553l-.312,0A2.246,2.246,0,0,0,.007,64.577C-.007,65-.245,74.93,5.933,81.108c5.644,5.644,14.5,5.93,16.219,5.93l.23,0s.009,0,.013,0,.009,0,.013,0l.23,0c1.718,0,10.575-.286,16.219-5.93C45.038,74.931,44.8,65,44.787,64.577ZM33.58,57.836a26.679,26.679,0,0,1,1.307,5.648,23.614,23.614,0,0,0-3.984,1.5,24.52,24.52,0,0,0-1.48-4.658A26.088,26.088,0,0,1,33.58,57.836Zm-22.366,0a25.869,25.869,0,0,1,4.159,2.49A24.552,24.552,0,0,0,13.889,65a23.686,23.686,0,0,0-3.982-1.513A26.691,26.691,0,0,1,11.214,57.836Zm-3.7,21.689C1.953,73.961,2.245,64.648,2.245,64.648s.084,0,.241,0a25.264,25.264,0,0,1,11.038,2.684c-.054.589-.085,1.187-.085,1.795,0,6.894,3.741,12.717,5.884,15.49C16.113,84.232,11.059,83.067,7.517,79.525Zm14.929,5.222c-.043-.014-.086-.028-.141-.048-.788-.859-6.626-7.5-6.626-15.575,0-8.658,6.718-15.676,6.718-15.676s6.718,7.018,6.718,15.676C29.115,77.431,22.946,84.211,22.446,84.747Zm14.831-5.222c-3.542,3.542-8.6,4.707-11.806,5.089,2.142-2.773,5.884-8.6,5.884-15.49,0-.611-.031-1.213-.087-1.806a25.241,25.241,0,0,1,11.04-2.673c.157,0,.241,0,.241,0S42.841,73.961,37.277,79.525Z" transform="translate(-0.002 -51.209)" fill="#5f4591"/>
    </g>
  </g>
</svg>
