<svg xmlns="http://www.w3.org/2000/svg" width="267.021" height="162.787" viewBox="0 0 267.021 162.787">
  <g id="yoga" transform="translate(0 21.672)">
    <path id="Path_371" data-name="Path 371" d="M40.946,215.066c-1.109-3.216-2.192-6.61-1.463-9.916.747-3.387,3.283-6.181,4.839-9.33,5.118-10.355-.9-22.144-2.7-33.387C38.9,145.462,46.9,127.385,61.751,116.94s35.965-12.851,53.136-6.03c13.29,5.266,24.152,15.5,38.269,18.5,9.034,1.923,18.462.653,27.736.4,13.487-.389,27.285,1.494,39.352,7.048s22.282,15.059,26.52,26.8c3.433,9.538,2.89,20.077,7.053,29.366,6.287,14.04,21.734,22.328,35.218,31.129,8.612,5.621,17.546,13.276,17.224,22.968-.268,7.97-7.117,14.07-14.682,17.085-9.628,3.832-18.795,2.325-29,2.459l-99.913,1.313c-3.458.047-7.021.074-10.24-1.085a38.836,38.836,0,0,1-6.774-3.749c-6.477-3.913-11.967-4.724-19.313-5.384-7.725-.69-15.111-3.152-22.975-3.578-13.119-.707-29.631-1.642-41.13-7.95C50.245,239.706,44.948,226.684,40.946,215.066Z" transform="translate(-39.246 -128.738)" fill="#f6f6f6"/>
    <path id="Path_372" data-name="Path 372" d="M225.933,583.127c-1.491-.164-2.98-.282-4.488-.356-.42-.017-122.272-.062-122.272-.062a1.517,1.517,0,0,0-.273.017c-.137,0-.273.026-.41.038l-46.94-.055a1.478,1.478,0,0,0-.27.017c-.654.045-1.309.1-1.953.173a1.3,1.3,0,0,0,0,2.589c.654.074,1.3.128,1.953.183a1.161,1.161,0,0,1,.254.019l46.879-.066.488.045a1.164,1.164,0,0,1,.256.019s121.869-.055,122.3-.073c1.51-.073,3-.192,4.481-.356a1.067,1.067,0,0,0,0-2.131Z" transform="translate(-45.98 -444.575)" fill="#c7c6c6"/>
    <path id="Path_373" data-name="Path 373" d="M197.012,274.674c-2.475,7.16-10.13,18.143-10.13,18.143L160.591,281.9c.069-.948-1.24-6.164-1.015-8.02a1.376,1.376,0,0,1,.09-.4c.088-.211.183-.422.268-.623.443-.972.9-1.873,1.247-2.525s.6-1.076.6-1.076a5.523,5.523,0,0,0-2.556-2.236,10.437,10.437,0,0,0-4.741-.948c-.135,0-.254,0-.372-.012-2.212-.133-1.4-1.714.173-3.4a40.972,40.972,0,0,1,4.817-4.227l6.764,4.374c.384.2,1.048-.287,1.738-1.109a14.276,14.276,0,0,0,1.854-2.869,11.647,11.647,0,0,0,.811-2.062c.218-.813,3.663,1.422,8.027,4.554,4.5,3.231,9.957,7.432,13.9,10.256A30.911,30.911,0,0,0,197.012,274.674Z" transform="translate(-125.842 -195.769)" fill="#f5a784"/>
    <path id="Path_374" data-name="Path 374" d="M395.77,409.354c-.631,3.731-7.022-.315-8.535-1.228a14.425,14.425,0,0,0-2.743-1.259c-.183-.069-2.053-.846-2.186-.68,0,0-1.982-.441-5.107-1.254a166.951,166.951,0,0,1-21.313-7.046c-12.257-5.175-20.12-7.454-26.1-8.416-.794-.13-1.761-.308-2.873-.531-7.318-1.463-20.651-4.952-27.384-10.18a67.881,67.881,0,0,1-9.085-8.449,38.526,38.526,0,0,1-2.594-3.2,6.814,6.814,0,0,0,2.845-2.048,21.014,21.014,0,0,0,4.135-7.266c.052-.147.095-.258.128-.358,0,0,.448.154,1.185.429,3.336,1.238,12.591,4.96,12.856,8.041a.255.255,0,0,0,.064.036c1.223.5,24.814,11.052,24.893,11.086,4.715,2.181,48.282,24.241,49.043,24.656a77.622,77.622,0,0,0,7.743,3.082C392.342,405.374,396.156,407.021,395.77,409.354Z" transform="translate(-228.913 -272.71)" fill="#f5a784"/>
    <path id="Path_375" data-name="Path 375" d="M236.894,12.214a12.741,12.741,0,0,1-.538-4.85c.19-1.716.024-5.526-.683-6.581a3.11,3.11,0,0,0-.5-.346,1.061,1.061,0,0,0-.147-.073,3.153,3.153,0,0,0-1.152-.32h-.111a3.124,3.124,0,0,0-1.107.135l-.1.036a4.37,4.37,0,0,0-.948.441,23.308,23.308,0,0,1,0,5.1s-.816-2.238-1.555-2.352l-.474.2s.6,2.508.77,3.651a8.427,8.427,0,0,0,2.565,4.632S236.047,14.054,236.894,12.214Z" transform="translate(-184.457 -0.038)" fill="#f5a784"/>
    <path id="Path_376" data-name="Path 376" d="M242.24.59l-.1.036a38.457,38.457,0,0,1,.382,5.163.033.033,0,0,0,.064,0A12.4,12.4,0,0,0,242.24.59Z" transform="translate(-194.039 -0.459)" fill="#e0855c"/>
    <path id="Path_377" data-name="Path 377" d="M247.341.06h-.111a39.721,39.721,0,0,1,.386,5.163.028.028,0,0,0,.057,0A12.338,12.338,0,0,0,247.341.06Z" transform="translate(-197.923 -0.055)" fill="#e0855c"/>
    <path id="Path_378" data-name="Path 378" d="M252.707,1.483a1.061,1.061,0,0,0-.147-.073,41.036,41.036,0,0,1,.341,4.881.028.028,0,0,0,.057,0A11.108,11.108,0,0,0,252.707,1.483Z" transform="translate(-201.989 -1.085)" fill="#e0855c"/>
    <path id="Path_379" data-name="Path 379" d="M225.815,102.585s-7.8,2.423-5.754-4.865c2.627-9.357,6.4-24.288,6.832-30.163S225.234,42.4,225.234,42.4l3.667-.474s4.144,18.928,4.187,26.377S231.73,100.7,225.815,102.585Z" transform="translate(-176.934 -31.999)" fill="#f5a784"/>
    <path id="Path_380" data-name="Path 380" d="M166.249,267.881a7.975,7.975,0,0,1-5.382,5.038,10.438,10.438,0,0,0-4.741-.948c-.135,0-.254,0-.372-.012l-.844-.427s.372-1.29,1.017-2.975a40.974,40.974,0,0,1,4.817-4.227Z" transform="translate(-127.489 -201.674)" fill="#e0855c"/>
    <path id="Path_381" data-name="Path 381" d="M116.622,237.58a17.421,17.421,0,0,1-.97,2.257c-.856,1.66-1.866,3.338-1.963,5.2-.128,2.549,1.472,5.149.6,7.539-.42,1.185-1.382,2.084-1.9,3.219a.959.959,0,0,0-.059.137c-.711,1.743-.194,3.694.171,5.531s.5,3.959-.742,5.367a4.774,4.774,0,0,1-2.895,1.422c-2.437.379-5.275-.642-6.188-2.94-1.294-3.246,1.683-7.278-.126-10.275-.621-1.015-1.69-1.674-2.4-2.622-3.189-4.267,1.5-8.554,1.235-12.92-.111-1.759-1.072-3.392-1.064-5.156.017-3.144,2.631-7.053,5.3-8.608a8.215,8.215,0,0,1,8.2-.028,6.977,6.977,0,0,1,3.063,3.407C118,231.637,117.582,234.851,116.622,237.58Z" transform="translate(-84.868 -171.38)" fill="#3b2645"/>
    <path id="Path_382" data-name="Path 382" d="M147.106,283.186c-.128,2.549,1.472,5.149.6,7.539-.42,1.185-1.382,2.084-1.9,3.219a4.952,4.952,0,0,1-.837-3.435c.121-.811.448-1.591.569-2.4a7.694,7.694,0,0,0-1.266-4.843c-.538-.9-1.752-2.454-1.358-3.587s1.97-.133,2.167-1.536a8.689,8.689,0,0,0-.024-1.109,2.4,2.4,0,0,1,.548-1.659,2.563,2.563,0,0,1,2.134-.737,3.732,3.732,0,0,1,2.276,1.1,17.421,17.421,0,0,1-.97,2.257C148.213,279.647,147.2,281.323,147.106,283.186Z" transform="translate(-118.284 -209.528)" fill="#2c1b33"/>
    <path id="Path_383" data-name="Path 383" d="M135.148,236.137c-1.977-1.053-3.739-1.818-4.979-1.7-5.472.529-8.219,7.048-6.029,10.057a12.165,12.165,0,0,0,4.386,3.165,1.363,1.363,0,0,0-.711,1.818c.524,1.074,2.907.612,4.36-.379a7.44,7.44,0,0,0,8.4-3.767C141.663,243.408,141.136,239.328,135.148,236.137Z" transform="translate(-103.438 -178.86)" fill="#f5a784"/>
    <path id="Path_384" data-name="Path 384" d="M163.375,250.756s.474-.4-.462-.839c-.849-.4-.948.028-.948.028s-.206.353.533.711S163.375,250.756,163.375,250.756Z" transform="translate(-132.851 -190.548)" fill="#3b2645"/>
    <path id="Path_385" data-name="Path 385" d="M152.167,271.356s.474-.4-.474-.839c-.849-.4-.948.028-.948.028s-.206.353.531.711S152.167,271.356,152.167,271.356Z" transform="translate(-124.291 -206.265)" fill="#3b2645"/>
    <path id="Path_386" data-name="Path 386" d="M161.835,262.587c.109-.28.6-.782.4-1.062a8.563,8.563,0,0,0-2.048-.683c-.268-.076-.56-.152-.823-.218v-.095a.744.744,0,0,1,.033-.2c1.076.3,2.157.69,3.174.977a.149.149,0,0,1,.09.216c-.223.372-.353.787-.569,1.164C162.008,262.812,161.781,262.729,161.835,262.587Z" transform="translate(-130.884 -198.622)" fill="#e0855c"/>
    <path id="Path_387" data-name="Path 387" d="M155.12,245.788c.024-.474.365-1.185.9-1.228a.13.13,0,0,1,.114.194c-.114.175-.292.284-.413.458a1.762,1.762,0,0,0-.237.619.183.183,0,0,1-.36-.043Z" transform="translate(-127.649 -186.591)" fill="#3b2645"/>
    <path id="Path_388" data-name="Path 388" d="M144.851,266.974c-.4-.5.071-1.437.612-1.636a.166.166,0,0,1,.206.2c-.059.263-.282.455-.394.7a2.5,2.5,0,0,0-.145.659.168.168,0,0,1-.28.076Z" transform="translate(-119.702 -202.436)" fill="#3b2645"/>
    <path id="Path_389" data-name="Path 389" d="M173.88,269.873a2.852,2.852,0,0,0,1-.816c.2-.32.237-.761.536-1.005a.1.1,0,0,1,.156.021c.216.439-.107,1.076-.36,1.444A1.629,1.629,0,0,1,174,270.3a.237.237,0,0,1-.116-.431Z" transform="translate(-141.884 -204.49)" fill="#e0855c"/>
    <path id="Path_390" data-name="Path 390" d="M118.675,243.163c1.254,1.228,2.688,2.876,4.469,3.208,3.653.678-.194-4.877-.5-5.853-.289-.917-.3-1.9-.529-2.845-.126-.517-1.008-1.555-.948-1.982s1.041-1,1.311-1.406c.73-1.1,1.614-1.477,2.584-.908s1.636-1.347,2.584-1.038-1.494-.858-1.494-.858l-4.59.835-2.646,3.461-.695,4.18Z" transform="translate(-99.497 -176.611)" fill="#3b2645"/>
    <path id="Path_391" data-name="Path 391" d="M138.037,322.8a140.754,140.754,0,0,1-1.712,22.218,156.553,156.553,0,0,1-4.654,16.709c-1.944,6.067-3.722,11.2-3.722,11.2l-.223.823a2.018,2.018,0,0,1-1.982,1.494l-10.031-.154a.526.526,0,0,1-.27-.974c2-1.306,7.053-2.119,7.608-2.518a5.424,5.424,0,0,0,.827-1.636s5.706-19.331,6.218-25.194-1.719-20.327-.633-27.809a16.7,16.7,0,0,1,.6-2.639,7.183,7.183,0,0,1,2.155-3.445,3.523,3.523,0,0,1,2.454-.851,5.018,5.018,0,0,1,2.108,2.98A34.2,34.2,0,0,1,138.037,322.8Z" transform="translate(-97.189 -236.526)" fill="#f5a784"/>
    <path id="Path_392" data-name="Path 392" d="M211.4,278.747a91.8,91.8,0,0,1-7.954,14.862c-.121.178-.237.36-.36.536q-.384.578-.794,1.162c-.159.237-.318.474-.486.7-.4.571-.811,1.136-1.235,1.7l-14.623-6.071a10.639,10.639,0,0,0-2.093-5.389,22.284,22.284,0,0,0-5.927-5.507,7.183,7.183,0,0,1,2.155-3.445c.1.071.2.14.313.211a13.836,13.836,0,0,0,4.248,1.918,6.373,6.373,0,0,0,5.87-1.278c3.319-2.888-.839-7.015-3.7-9.281A14.274,14.274,0,0,0,188.662,266a24.443,24.443,0,0,0,8.838,2.492C202,271.723,207.462,275.924,211.4,278.747Z" transform="translate(-145.052 -202.948)" fill="#ea4a8e"/>
    <path id="Path_393" data-name="Path 393" d="M413.211,385.209c-1.489,1.859-5.251.1-6.8-.666a74.861,74.861,0,0,0-7.458-3.722c-.861-.308-1.712-.626-2.565-.948-5.313-2.006-10.573-4.165-15.922-6.1-.42-.154-73.225-28.954-73.225-28.954a26.788,26.788,0,0,0,2.371-5.766,15.582,15.582,0,0,0,.455-2.5,6.69,6.69,0,0,0-.363-3.48,39.428,39.428,0,0,1,4.5-.2,68.924,68.924,0,0,1,11.963,1.119c8.895,1.619,21.277,10.045,26.874,14.35.488.382.922.725,1.3,1.027,4.715,3.807,11.659,8.141,23.707,13.812a167.884,167.884,0,0,1,20.239,11.673c2.231,1.489,3.556,2.451,3.556,2.451-.024.211,1.795,1.081,1.97,1.185a14.982,14.982,0,0,0,2.779,1.2C408.28,380.2,415.565,382.251,413.211,385.209Z" transform="translate(-243.706 -253.963)" fill="#f5a784"/>
    <path id="Path_394" data-name="Path 394" d="M360.593,348.344c-1.524,3.622-3.063,6.908-4.545,9.839-.41.808-.811,1.6-1.214,2.352-5.69-2.387-30-11.823-37.694-14.8a45.178,45.178,0,0,0,2.982-5.969,48.734,48.734,0,0,0,2.262-6.889,69.314,69.314,0,0,1,11.327,1.114C342.613,335.613,355,344.051,360.593,348.344Z" transform="translate(-251.259 -253.972)" fill="#3b2645"/>
    <path id="Path_395" data-name="Path 395" d="M342.01,380.353c-5.5-2.515-24.717-11.01-24.717-11.01-.237-2.665-7.174-5.808-11.206-7.4a45.185,45.185,0,0,1-2.982,5.969,29.663,29.663,0,0,1-4.365,5.834,67.88,67.88,0,0,0,9.085,8.449c6.733,5.227,20.066,8.717,27.384,10.18,1.458-2.29,3.236-5.268,5.159-8.871-8.689-5.125-22-13.48-23.01-14.122C318.573,369.908,336.7,377.921,342.01,380.353Z" transform="translate(-237.221 -276.143)" fill="#3b2645"/>
    <path id="Path_396" data-name="Path 396" d="M521.779,462.54c-4.694-2.418-9.45-4.725-14.1-7.226s-31.607-15.661-31.69-15.7c-.41.808-.811,1.6-1.214,2.352-.142.273-.282.531-.424.8,2.134,1.266,4.014,2.338,5.341,3.042C486.5,449.422,520.717,462.144,521.779,462.54Z" transform="translate(-371.199 -335.4)" fill="#e0855c"/>
    <path id="Path_397" data-name="Path 397" d="M401.916,404.294c-5.313-2.432-23.437-10.445-24.656-10.974,1.012.643,14.322,9,23.01,14.122.142-.266.282-.524.424-.8C401.1,405.892,401.505,405.1,401.916,404.294Z" transform="translate(-297.126 -300.084)" fill="#291b30"/>
    <path id="Path_398" data-name="Path 398" d="M339.96,383.259c-3.193.1-5.891-2.036-8.772-3.082a.251.251,0,0,0-.237.42,18.8,18.8,0,0,0,4.957,2.608c1.33.533,2.731,1.185,4.163.763a.363.363,0,0,0-.111-.709Z" transform="translate(-261.739 -290.047)" fill="#291b30"/>
    <path id="Path_399" data-name="Path 399" d="M233.979,341.747a.308.308,0,0,0-.6-.069,8.278,8.278,0,0,1-1.278,3.3,4.435,4.435,0,0,1-2.942,1.633c-.526.059-.526.872.019.837A5.415,5.415,0,0,0,233.979,341.747Z" transform="translate(-183.835 -260.518)" fill="#df3c7c"/>
    <path id="Path_400" data-name="Path 400" d="M264.234,297.27a.428.428,0,0,0-.834.133,4.526,4.526,0,0,1-.669,3.082c-.633.965-1.555,1.209-2.456,1.849a.348.348,0,0,0,.28.628A4.791,4.791,0,0,0,264.234,297.27Z" transform="translate(-207.756 -226.581)" fill="#df3c7c"/>
    <path id="Path_401" data-name="Path 401" d="M683.31,547.826c-.631,3.732-7.022-.315-8.535-1.228a14.418,14.418,0,0,0-2.743-1.259c-.183-.069-2.053-.846-2.186-.68,0,0-1.982-.441-5.107-1.254a14.084,14.084,0,0,0,3.494-4.464c.773.4,1.536.8,2.3,1.207a77.626,77.626,0,0,0,7.743,3.082C679.882,543.845,683.7,545.493,683.31,547.826Z" transform="translate(-516.453 -411.181)" fill="#ea4a8e"/>
    <path id="Path_402" data-name="Path 402" d="M700.095,520.318c-1.489,1.859-5.251.1-6.8-.666a74.872,74.872,0,0,0-7.458-3.722c-.861-.308-1.712-.626-2.565-.948.73-1.633,1.32-3.319,1.9-5.021,2.231,1.489,3.556,2.451,3.556,2.451-.024.211,1.795,1.081,1.97,1.185a14.981,14.981,0,0,0,2.779,1.2C695.164,515.306,702.449,517.359,700.095,520.318Z" transform="translate(-530.59 -389.072)" fill="#ea4a8e"/>
    <path id="Path_403" data-name="Path 403" d="M210.267,358.967l-5.244-2.179a10.548,10.548,0,0,0-2.093-5.389A21.384,21.384,0,0,1,210.267,358.967Z" transform="translate(-164.125 -268.102)" fill="#df3c7c"/>
    <path id="Path_404" data-name="Path 404" d="M182.045,94.266c-1.143-3.9-2.845-7.684-4.18-11.531-1.126-3.241-1.847-7.143-4.03-9.876-.14-.175-.512-.147-.474.14.05.458.021.417.351.752-.04.223.074.443.4.685a17.723,17.723,0,0,1,.8,1.984c.237.711.46,1.422.68,2.134.588,1.9,1.185,3.765,1.833,5.633a73.418,73.418,0,0,0,4.03,10.339A.325.325,0,0,0,182.045,94.266Z" transform="translate(-141.564 -55.511)" fill="#e8cfe5"/>
    <path id="Path_405" data-name="Path 405" d="M359.127,82.506c-4.215,3.065-7.944,6.951-11.726,10.507-3.995,3.777-8.046,7.558-11.745,11.628a.313.313,0,0,0,.453.431c3.98-3.594,7.764-7.416,11.666-11.1s8.129-7.079,11.716-11.021C359.708,82.724,359.407,82.3,359.127,82.506Z" transform="translate(-265.326 -62.914)" fill="#e8cfe5"/>
    <path id="Path_406" data-name="Path 406" d="M391.171,173.449c-3.48,1-6.735,2.88-9.957,4.483-3.466,1.721-7.046,3.383-10.332,5.436-.292.183-.085.711.256.571,3.359-1.366,6.6-3.11,9.86-4.685,3.461-1.676,7.214-3.132,10.379-5.327a.261.261,0,0,0-.206-.479Z" transform="translate(-292.155 -132.324)" fill="#e8cfe5"/>
    <path id="Path_407" data-name="Path 407" d="M422.429,252a57.286,57.286,0,0,0-16.394-.711.287.287,0,0,0,.012.574c5.4.5,10.844.768,16.254,1.242C422.934,253.168,423.053,252.113,422.429,252Z" transform="translate(-318.866 -191.493)" fill="#e8cfe5"/>
  </g>
</svg>
